<svg xmlns="http://www.w3.org/2000/svg" width="95" height="168" viewBox="0 0 95 168">
    <path fill-rule="evenodd" d="M49.538 118.19c2.378 0 2.375-3.586 0-3.586-2.378 0-2.373 3.585 0 3.585zm-6.812-.939c0-7.86 11.913-7.853 11.913 0 0 7.86-11.913 7.853-11.913 0zm39.165-.385c1.407-.162 1.008-3.555-.391-3.396-1.41.162-1.008 3.555.391 3.396zm1.129-7.141c5.266 0 5.26 10.5 0 10.5-5.266 0-5.259-10.5 0-10.5zm-55.381 48.893c-6.353-12.11-4.41-23.248-3.275-27.455-5.43-1.288-12.789-3.681-16.761-7.648.144 14.86 8.151 27.841 20.036 35.103zM8.136 116.704c-1.322 6.264 15.569 13.916 41.214 13.916 24.343 0 41.308-6.932 41.308-13.155 0-9.691-12.178-34.075-38.397-35.882-1.252-.084-1.943-1.506-1.221-2.542 6.44-9.238 26.95-41.217 27.657-74.196-37.234 28.38-43.187 70.099-44.012 78.332-.062.6-.446 1.113-1.005 1.34-2.102.853-4.042 1.806-5.763 2.837-1.092.66-2.512-.157-2.46-1.457.548-13.156.16-45.647-14.469-70.223-16.27 40.33-2.571 75.418 2.113 85.383.224.478.203 1.034-.06 1.491-3.939 6.912-4.439 11.914-4.905 14.156zm86.214 6.4c0 24.756-20.185 44.896-45 44.896-33.951 0-55.835-36.48-39.54-66.32-5.242-11.47-18.848-48.367-.594-90.175.237-.545.757-.918 1.352-.964.603-.057 1.17.229 1.497.727 15.306 23.397 17.19 54.016 16.736 71.901.88-.444 1.8-.871 2.756-1.28C32.773 71.28 40.04 28.544 79.377.305c.49-.352 1.133-.403 1.677-.133.538.272.886.817.896 1.421.603 32.727-18.616 64.969-26.698 77.034 21.546 2.854 39.098 21.382 39.098 44.477z"/>
</svg>
