<svg xmlns="http://www.w3.org/2000/svg" width="551" height="176" viewBox="0 0 551 176">
    <g fill-rule="evenodd">
        <path d="M49.538 118.19c2.378 0 2.375-3.586 0-3.586-2.378 0-2.373 3.585 0 3.585zm-6.812-.939c0-7.86 11.913-7.853 11.913 0 0 7.86-11.913 7.853-11.913 0zm39.165-.385c1.407-.162 1.008-3.555-.391-3.396-1.41.162-1.008 3.555.391 3.396zm1.129-7.141c5.266 0 5.26 10.5 0 10.5-5.266 0-5.259-10.5 0-10.5zm-55.381 48.893c-6.353-12.11-4.41-23.248-3.275-27.455-5.43-1.288-12.789-3.681-16.761-7.648.144 14.86 8.151 27.841 20.036 35.103zM8.136 116.704c-1.322 6.264 15.569 13.916 41.214 13.916 24.343 0 41.308-6.932 41.308-13.155 0-9.691-12.178-34.075-38.397-35.882-1.252-.084-1.943-1.506-1.221-2.542 6.44-9.238 26.95-41.217 27.657-74.196-37.234 28.38-43.187 70.099-44.012 78.332-.062.6-.446 1.113-1.005 1.34-2.102.853-4.042 1.806-5.763 2.837-1.092.66-2.512-.157-2.46-1.457.548-13.156.16-45.647-14.469-70.223-16.27 40.33-2.571 75.418 2.113 85.383.224.478.203 1.034-.06 1.491-3.939 6.912-4.439 11.914-4.905 14.156zm86.214 6.4c0 24.756-20.185 44.896-45 44.896-33.951 0-55.835-36.48-39.54-66.32-5.242-11.47-18.848-48.367-.594-90.175.237-.545.757-.918 1.352-.964.603-.057 1.17.229 1.497.727 15.306 23.397 17.19 54.016 16.736 71.901.88-.444 1.8-.871 2.756-1.28C32.773 71.28 40.04 28.544 79.377.305c.49-.352 1.133-.403 1.677-.133.538.272.886.817.896 1.421.603 32.727-18.616 64.969-26.698 77.034 21.546 2.854 39.098 21.382 39.098 44.477z"/>
        <path fill-rule="nonzero" d="M161.88 82.6c1.013-.533 1.76-.853 2.24-.96.48-.373.747-.533.8-.48 0-.107-.053-.24-.16-.4-.267.16-.453.187-.56.08.107-.48.08-.933-.08-1.36h-.16c-.053-.107-.133-.16-.24-.16-.32 0-.933 1.093-1.84 3.28zm15.68 1.68c0-.32.08-.48.24-.48-1.227-.8-1.947-1.2-2.16-1.2H175c-.053.267.24.56.88.88 1.013.48 1.573.747 1.68.8zm-.96.48l-.16-.56h-.24l.16.56h.24zm-18.56 15.52c-.32 0-.48-.107-.48-.32 0-.213 1.52-2.08 4.56-5.6-.213-.213-.293-.4-.24-.56 2.293-2.613 5.12-5.12 8.48-7.52-.48.587-.76.907-.84.96-.08.053-.173.133-.28.24l.24.16c.107-.053.187-.08.24-.08.107.107.16.213.16.32l-.32.32c-.213-.107-.427-.16-.64-.16-.373 0-.667.107-.88.32l-1.52 1.2c-.64.533-1.12 1.093-1.44 1.68 0 .053.027.213.08.48l-.16.32h-.32c-.107.16-.187.267-.24.32.213.16.48.16.8 0l-.4.4c-.107 0-.16-.027-.16-.08 0-.053-.053-.08-.16-.08-.213 0-.4.24-.56.72-1.227 1.28-2.16 2.32-2.8 3.12-1.867 2.187-2.907 3.467-3.12 3.84zm20.24-12.64h-.24v-.48h.24v.48zm-12.4 4.48l-.24-.08c.693-.747 1.28-1.307 1.76-1.68-.053.64-.56 1.227-1.52 1.76zm-17.68 18.72v-.48l.44-1.04c.293-.693.493-1.28.6-1.76 1.44-2.773 3.307-6.16 5.6-10.16.32.267.56.507.72.72-2.187 3.2-3.52 5.2-4 6-1.547 2.933-2.667 5.173-3.36 6.72zm-4 5.52c.427-2.08.853-5.28 1.28-9.6h.64v.72c0 1.173-.373 3.6-1.12 7.28-.32.693-.587 1.227-.8 1.6zm12.08-2l.16-.4-.24-.08-.16.4.24.08zm-20.554 21.298c.017-.081.069-.154.154-.218.107-.08.16-.147.16-.2.107.427.16.747.16.96.64.8.96 1.253.96 1.36 0-.053-.16.213-.48.8-.213-.16-.32-.507-.32-1.04-.053.053-.093.12-.12.2-.027.08-.067.147-.12.2-.267-1.44-.4-2.107-.4-2l.006-.062zm9.194 1.582c-.267-.16-.373-.293-.32-.4.107-.16.213-.293.32-.4v.8zm-25.6 4.88c.693-.48 1.147-.907 1.36-1.28 0-.107-.053-.24-.16-.4-.16.213-.373.52-.64.92s-.453.653-.56.76zm50.4 3.52c.053 0 .24-.08.56-.24-.373-.32-.88-.827-1.52-1.52.213-.747.32-1.093.32-1.04-.213-.8-.533-1.547-.96-2.24-.693.693-1.04 1.253-1.04 1.68 0 1.013.427 1.92 1.28 2.72.587.427 1.04.64 1.36.64zm4.96-2.56l.48-.56-.16-.16-.48.64.16.08zm-41.76 4l-.16-.64h-.24l.16.64h.24zm44.874-6.446c-.03.017-.16-.394-.394-1.234l-.24 1.04c.16.267.32.453.48.56.107-.16.16-.293.16-.4l-.003.025-.003.009zm-60.202-3.012l.063-.036c.196-.124.43-.346.705-.666.053.107.08.293.08.56.053-.053.12-.147.2-.28.08-.133.147-.227.2-.28.107.267.08.533-.08.8.533-.267.853-.4.96-.4.213 0 .293.053.24.16v.56c.16-.427.347-.613.56-.56v2.72c.373-.053.667-.027.88.08-.213-.16-.267-.667-.16-1.52.053 0 .133-.027.24-.08l.075-.035c.07-.03.125-.045.165-.045.213.267.32.507.32.72 0 .32-.08.747-.24 1.28h.72c.48-.48.907-.773 1.28-.88.053-.32.187-.507.4-.56.053.107.08.187.08.24l.32-.32c-.053 0-.133.027-.24.08-.16-.16-.24-.267-.24-.32.305-.136.492-.228.56-.278l.006-.004.021.13c.06.464.017 1.083-.128 1.855l-.059.297c.16-.32.373-.453.64-.4-.16-.48 0-.853.48-1.12-.16-.053-.133-.64.08-1.76v-1.28c.267-1.013.533-1.76.8-2.24.32-.907.56-1.6.72-2.08.587-.907.88-1.44.88-1.6v-.48c-.053-.267-.08-.453-.08-.56v-3.545l.002.023c.013.244.112-.723.296-2.901l.022-.257c.213-2.533.64-5.053 1.28-7.56l.24-1.44c.693-2.293 1.84-5.147 3.44-8.56 1.333-2.88 2.667-5.733 4-8.56.16.267.267.48.32.64.107-.853.213-1.28.32-1.28.16.32.24.907.24 1.76 0 .107-.04.427-.12.96-.08.533-.12.853-.12.96-.747 5.92-1.413 10.373-2 13.36.267-.267.48-.373.64-.32v.48c-.107.107-.187.16-.24.16 0 .213.107.533.32.96.107-.533.16-.907.16-1.12.373-1.547.693-2.667.96-3.36.107-.64.227-1.12.36-1.44l-.04.102v.298h.24v-.32h-.231l.031-.08c.111-.267.213-.46.306-.578l.054-.062c0-.16-.027-.333-.08-.52-.053-.187-.08-.333-.08-.44 0-.053.08-.267.24-.64 0-.053.187-1.307.56-3.76.16-1.547.293-2.64.4-3.28.107.213.16.507.16.88l-.24 1.64c-.16 1.093-.24 1.907-.24 2.44.053 2.187-.053 4.533-.32 7.04-.107.48-.213.88-.32 1.2-.64 4.16-.987 6.347-1.04 6.56-1.067 5.547-1.76 9.547-2.08 12 0 .107-.04.293-.12.56l-.043.154c-.051.196-.077.358-.077.486 0 .16.027.387.08.68.053.293.08.493.08.6 0 .16-.053.44-.16.84-.107.4-.16.653-.16.76l.08.68c.053.453.08.76.08.92.373.8.613 1.44.72 1.92.32.267.587.453.8.56-.373.373-.56.72-.56 1.04l.003-.041.007-.024c.036-.072.17.12.404.574l.066.131c.16-.16.32-.187.48-.08v.48c-.427.48-.613.853-.56 1.12l.32.32c.32 0 .613-.093.88-.28.267-.187.613-.56 1.04-1.12.427-.56.747-.84.96-.84.107 0 .507.16 1.2.48 0-.2-.005-.34-.014-.42l-.002-.01.195-.09c.585-.272 1.041-.48 1.369-.623l.132-.057c.747-.747 1.227-1.387 1.44-1.92l.24.08c.16.053.347.08.56.08-.053-.32.267-.587.96-.8 1.493-2.987 2.72-5.733 3.68-8.24 2.56-6.667 4.613-11.52 6.16-14.56.213-.32.533-.667.96-1.04.107-.267.16-.453.16-.56.267 0 .4.08.4.24l5.84-9.12c.16.16.24.347.24.56 1.387-1.92 2.56-3.413 3.52-4.48.16.32.267.453.32.4-.107-.427-.013-.773.28-1.04.293-.267.547-.507.76-.72.16-.053.267-.08.32-.08-.427 0-.693-.053-.8-.16.053-.107.133-.227.24-.36.107-.133.2-.227.28-.28.08-.053.2-.08.36-.08.213-.427.427-.773.64-1.04.213-.267.32-.453.32-.56.427-.213.72-.427.88-.64.427.427.613.96.56 1.6-.039.847-.063 1.32-.074 1.416l-.001.007.012.143c.067.798.11 1.265.13 1.399l.004.024-.113.339-.038.112c.053.213.08.987.08 2.32 0 3.68-.213 6.16-.64 7.44.107.747.107 1.36 0 1.84-.747 1.013-.853 1.76-.32 2.24 0 .533-.053.88-.16 1.04.053.373.08.613.08.72-.107.32-.213.56-.32.72-.053.213-.053.64 0 1.28s0 1.147-.16 1.52c-.107.267-.08.533.08.8-.053.533-.16 1.333-.32 2.4s-.267 1.867-.32 2.4c-.107.16-.187.293-.24.4-.053 0-.027.16.08.48-.16.427-.293.747-.4.96-.213 2.4-.453 4.08-.72 5.04-.053.693-.08 1.2-.08 1.52-.107.533-.24.907-.4 1.12.107 0 .187.027.24.08-.32.16-.533.293-.64.4.267.267.48.453.64.56 0 .213-.053.667-.16 1.36-.107.533-.107.987 0 1.36.16.213.28.413.36.6.08.187.12.36.12.52.053.373.187.613.4.72.48.053.827.08 1.04.08.373.853.747 1.427 1.12 1.72.373.293.64.52.8.68.16.48.4.827.72 1.04h.4c.427-.107.8-.32 1.12-.64-.16-.427-.187-.72-.08-.88.107-.213.16-.293.16-.24 0-.747.187-1.227.56-1.44 0 .213.027.587.08 1.12.053.213-.027.453-.24.72.213.213.427.32.64.32.16-.48.267-.853.32-1.12-.213.267-.373.427-.48.48v-.64h.64c.373 0 .773-.107 1.2-.32.427-1.493.693-2.613.8-3.36.213-.373.373-.64.48-.8.373-2.987.613-5.227.72-6.72.267-.747.48-1.28.64-1.6l.32-.88h.08v1.36c-.107 2.4-.267 4.587-.48 6.56-.053.533-.187 1.373-.4 2.52-.213 1.147-.32 1.747-.32 1.8 0 1.067.293 1.6.88 1.6.16 0 .333-.027.52-.08.187-.053.307-.107.36-.16.267-1.12.453-1.973.56-2.56.213-1.493.32-2.453.32-2.88v-10c0-.16-.027-.48-.08-.96-.053-.48-.08-.773-.08-.88V98.36c0-.693.347-1.76 1.04-3.2.32-.427.56-.773.72-1.04.213-.587.347-1.04.4-1.36-.533.587-1.173 1.493-1.92 2.72-.267-3.68-.453-6.4-.56-8.16-.267-.16-.453-.373-.56-.64.32-1.227-.16-2.373-1.44-3.44.267.587.4 1.227.4 1.92 0 .267-.213.587-.64.96-.373-.533-.667-.8-.88-.8-.213 0-.36.133-.44.4-.08.267-.147.427-.2.48-.16-.16-.373-.24-.64-.24-.427 0-.84-.133-1.24-.4s-.627-.4-.68-.4c-.107 0-.187.027-.24.08-.053.053-.133.08-.24.08-.053 0-.16-.08-.32-.24.107-.053.213-.16.32-.32.107-.16.187-.267.24-.32-.747-.533-1.307-.8-1.68-.8s-1.013.293-1.92.88c-.533.373-1.04.747-1.52 1.12-.96.427-1.92 1.147-2.88 2.16-.427.533-.773.987-1.04 1.36.053.053.053.133 0 .24-.693.587-1.227.987-1.6 1.2.053.16-.08.4-.4.72l-.16-.24c.16-.427.293-.747.4-.96-.107.107-.453.507-1.04 1.2-.373.48-.773.773-1.2.88l3.76-4.8c-.853.8-1.52 1.413-2 1.84-.213-.373-.373-.587-.48-.64.213-.373.347-.587.4-.64l-.96.48v-.16c1.867-3.36 3.547-5.733 5.04-7.12h-.48c-.373.16-.693.267-.96.32-1.547 1.76-3.227 4.4-5.04 7.92-.053.32-.08.56-.08.72-2.187 2.933-3.893 5.093-5.12 6.48-.053-.107-.08-.187-.08-.24-1.44 2.453-2.293 3.973-2.56 4.56.107 0 .187.027.24.08-.267.373-.56.733-.88 1.08-.32.347-.427.707-.32 1.08-.213.267-.52.813-.92 1.64s-.787 1.427-1.16 1.8c-.213.16-.267.373-.16.64-.16.16-.293.267-.4.32 0-2.133-.027-4.267-.08-6.4-.053-2.667-.347-5.067-.88-7.2-.8-3.467-1.2-5.093-1.2-4.88 0-.16.027-.24.08-.24.96 2.187 2.027 4.88 3.2 8.08.107-.693.187-1.253.24-1.68-.267-.267-.427-.48-.48-.64-1.013-4.747-2.373-8.293-4.08-10.64.053-.053.093-.12.12-.2.027-.08.067-.12.12-.12l.4.4c0-.107.067-.28.2-.52s.2-.413.2-.52c0-.32-.24-.787-.72-1.4-.48-.613-.72-1.027-.72-1.24-.427-.427-.773-.72-1.04-.88-.96.267-1.653.4-2.08.4l-.24-.24c.213-.16.493-.4.84-.72.347-.32.6-.56.76-.72-.747-.747-1.2-1.12-1.36-1.12-.053 0-.8.613-2.24 1.84-.427-1.12-.933-1.68-1.52-1.68-.48 0-.907.347-1.28 1.04-.373 0-.8.213-1.28.64-.107.267-.133.427-.08.48-2.027 2.08-3.493 4.187-4.4 6.32-.32.48-.56.827-.72 1.04-.747 2.027-2.32 5.48-4.72 10.36-2.4 4.88-4.08 8.6-5.04 11.16-1.28 3.36-2.16 6.253-2.64 8.68-.48 2.427-.693 3.987-.64 4.68 0 .213-.133 1.053-.4 2.52s-.4 2.333-.4 2.6V133c0 .053.053.427.16 1.12.107.693.16 1.173.16 1.44.32.693.507 1.307.56 1.84.261.112.405.185.431.218l.001.004zM212.6 94.6c.693-.267 1.067-.853 1.12-1.76v-2.16c-.32-.267-.587-.4-.8-.4-.747 0-1.12.587-1.12 1.76 0 .16.04.48.12.96.08.48.173.827.28 1.04.107.213.24.4.4.56zm8.96 3.12c1.44-1.44 2.16-2.347 2.16-2.72 0-.267-.267-.88-.8-1.84-.533-.96-1.067-1.44-1.6-1.44-.16 0-.453.027-.88.08-.427.053-.693.08-.8.08-.16 0-.467-.147-.92-.44-.453-.293-.733-.44-.84-.44-.8 0-1.547.427-2.24 1.28.213.427.413.8.6 1.12.187.32.52.48 1 .48.16 0 .28-.027.36-.08.08-.053.2-.08.36-.08.267 0 .4.293.4.88-.053.48-.133.8-.24.96.267.48.48.827.64 1.04 1.173.533 2.107.907 2.8 1.12zm-10.48 1.84c-.053 0-.32-.133-.8-.4-.267-.107-.533-.16-.8-.16-.053-.213-.293-.48-.72-.8.853-.32 1.547-.48 2.08-.48.427 0 .933.08 1.52.24-.267 0-.507.187-.72.56-.32.693-.507 1.04-.56 1.04zm1.28 1.6c0-.32.053-.533.16-.64-.053 0-.08-.067-.08-.2s-.08-.2-.24-.2c-.16 0-.28.027-.36.08-.08.053-.147.08-.2.08 0-.053.107-.187.32-.4-.053-.107-.213-.16-.48-.16.427-.587.72-1.147.88-1.68.693 0 1.28.04 1.76.12.48.08.693.12.64.12-.267.96-.533 1.653-.8 2.08.053.107.133.16.24.16-.16.053-.467.147-.92.28-.453.133-.76.253-.92.36zm-3.6-2v-.24l.4-.24.08.24-.48.24zm4.08.32l.4-.48-.16-.16-.4.4.16.24zm-1.6 1.52l-.64-.32c.053 0 .187-.04.4-.12.213-.08.347-.12.4-.12.213 0 .16.187-.16.56zm4.88.08l-.08-.2c-.053-.133-.08-.28-.08-.44-.107 0-.24.04-.4.12-.16.08-.267.12-.32.12.32.267.613.4.88.4zm3.36 2.16l.48-.4-.16-.16-.48.4.16.16zm-.8.64l.4-.8-.24-.08-.4.8.24.08zm-.32 1.6l.96-1.28-.24-.16-.96 1.28.24.16zm20.96 4.08c0-.053.027-.16.08-.32.053-.16.08-.32.08-.48 0-.16-.067-.333-.2-.52s-.227-.307-.28-.36c-.16-1.12-.293-1.867-.4-2.24h-.8c-.053.213-.08.453-.08.72 0 .213.04.547.12 1 .08.453.12.787.12 1 0 .093-.008.178-.025.255l-.029.1.089.119c.22.295.38.515.48.66l.045.066h.8zm-23.04 1.6l1.28-2-.24-.16-1.28 2 .24.16zm.24 5.44l.48-1.68h-.24l-.56 1.6.32.08zm-13.2.16l.16-1.36h-.32l-.16 1.36h.32zm-7.52-.08l.4-.64-.16-.16-.48.64.24.16zm18.96 3.36h-.24l.32-2.4h.32l-.4 2.4zm-31.44-.16h-.24v-1.2h.24v1.2zm38.08 1.36c0-.213.187-.533.56-.96-.107-.107-.187-.24-.24-.4-.053 0-.32.267-.8.8.053.053.133.147.24.28.107.133.187.227.24.28zm-37.68 1.36c-.427-1.12-.64-1.733-.64-1.84 0-.48.213-.72.64-.72v2.56zm39.28-1.36c0-.427.027-.667.08-.72l-.72.72h.64zM212.92 125h-.24l-.24-.4.24-.08.24.48zm-.88 1.04h-.32v-.64h.32v.64zm0 1.04h-.32v-.64h.32v.64zm-21.52 3.52c-.587-.267-1.52-.853-2.8-1.76l.08-.24-.32.24-1.12-1.2c1.013.587 2.4 1.573 4.16 2.96zm10.96.32v-.24h-1.68v.24h1.68zm.8.16l.08-.24-.64-.16v.24l.56.16zm-8 3.28c.747 0 1.2-.347 1.36-1.04-.107.107-.24.16-.4.16-.107 0-.827-.347-2.16-1.04.693.48 1.2.907 1.52 1.28-.053.053-.12.093-.2.12-.08.027-.147.067-.2.12-2.347-1.067-4.08-1.893-5.2-2.48.32.267 1.067.773 2.24 1.52 1.493.907 2.507 1.36 3.04 1.36zm3.6-1.12c-.16-.16-.107-.347.16-.56-.8 0-1.28-.027-1.44-.08h-.72c-.053 0-.12.067-.2.2-.08.133-.147.2-.2.2.587.16 1.387.24 2.4.24zm4.4 1.12c.533-.213.96-.373 1.28-.48-.053-.053-.267-.08-.64-.08l-.4-.4c.48-.267.8-.4.96-.4-.16 0-.427.027-.8.08-.373.053-.6.093-.68.12-.08.027-.147.147-.2.36-.053.213-.08.347-.08.4.053.053.147.107.28.16.133.053.227.133.28.24zm4.16-29.92c.16-.213.4-.32.72-.32-2.293 3.893-3.52 9.227-3.68 16 0 1.067-.107 1.893-.32 2.48-.107 0-.293.093-.56.28-.267.187-.48.28-.64.28-.16 0-.227-.027-.2-.08.027-.053-.04-.08-.2-.08-.107 0-.88.253-2.32.76s-2.24.76-2.4.76c-.907 0-1.653-.693-2.24-2.08-.427-1.013-.64-1.84-.64-2.48 0-1.12.347-2.747 1.04-4.88 0-.853.427-2.027 1.28-3.52.32-.587 1.2-2 2.64-4.24l-.006.01-.794 1.43c-.336.576-.5 1.044-.49 1.404l.01.116c1.227-1.813 2.187-3.227 2.88-4.24.32-.107.613-.213.88-.32 1.867-1.547 3.733-2.587 5.6-3.12-.053-.053-.187-.08-.4-.08-.693 0-1.653.32-2.88.96-1.387.747-2.32 1.52-2.8 2.32-.267-.267-.48-.4-.64-.4.747-1.173 2.32-2.613 4.72-4.32.693-.533 1.333-.8 1.92-.8-.16 0 .24.107 1.2.32.267-.213.293-.427.08-.64.107 0 .267.107.48.32.213 0 .347-.027.4-.08l-.32-.4h1.36l-1.92 2.56.16-.32c0-.213-.027-.347-.08-.4h-.64c-.213.587-.4 1.04-.56 1.36-.16.107-.48.16-.96.16v1.12c.213-.213.32-.373.32-.48v.64zm-1.728-9.117c.036.021-.524.13-1.68.324l-.432.073c-2.507.427-4.067.773-4.68 1.04-.613.267-1.36.693-2.24 1.28-.88.587-1.373.88-1.48.88-.267 0-.4-.053-.4-.16 0 .32-.08.48-.24.48-.107-.107-.267-.16-.48-.16.107.32-.013.72-.36 1.2s-.68.72-1 .72c-.48 0-.933-.16-1.36-.48.533-.533 1.04-.88 1.52-1.04-.16-.107-.907.32-2.24 1.28-.427.16-.8.267-1.12.32-1.707.853-3.28 2.84-4.72 5.96s-2.107 5.667-2 7.64c.053.107.027.253-.08.44s-.16.333-.16.44c0 .8.107 1.92.32 3.36.32 2.613 1.227 5.04 2.72 7.28l1.52 2.24c2.4 1.867 4.053 2.8 4.96 2.8.16 0 .227-.027.2-.08-.027-.053.04-.08.2-.08.107 0 .467.173 1.08.52.613.347 1 .52 1.16.52.107 0 .52-.067 1.24-.2s1.24-.2 1.56-.2c-.48-.267-.907-.4-1.28-.4l.097.005.05.007c.114.024.133.083.058.178l-.045.05h-1.84c-.64 0-1.493-.427-2.56-1.28.053-.053.133-.093.24-.12.107-.027.187-.067.24-.12 1.013.267 1.653.48 1.92.64-.213-.213-.187-.32.08-.32.48 0 .96.293 1.44.88 0-.16-.053-.307-.16-.44-.107-.133-.16-.227-.16-.28 2.507-.373 4.427-.56 5.76-.56.16 0 .427-.107.8-.32.373-.213.64-.32.8-.32.16 0 .613.307 1.36.92.747.613 1.12 1.08 1.12 1.4 0 .16-.08.24-.24.24-.48 0-1.04.133-1.68.4-.96.373-1.52.56-1.68.56.107 0 .24.027.4.08h.56c.16 0 .24-.067.24-.2s.027-.227.08-.28l.4.32c.16-.16.32-.293.48-.4l1.68-.24c.16 0 .36.173.6.52.24.347.387.547.44.6 2.293 1.653 3.893 2.693 4.8 3.12.213.107.987.16 2.32.16-.693-.373-1.093-.613-1.2-.72.587 0 1.307.04 2.16.12.731.069 1.13.108 1.195.118l.008.002.025-.001c.223-.014 1.23-.172 3.018-.473l.274-.046c2.053-.347 3.16-.52 3.32-.52.16 0 .333.053.52.16.187.107.36.16.52.16.16 0 .88-.32 2.16-.96 1.547-.8 2.533-1.28 2.96-1.44.213-.267.373-.48.48-.64 1.547-.587 2.533-1.013 2.96-1.28 1.6-1.333 2.8-2.4 3.6-3.2 1.173-.693 2.027-1.173 2.56-1.44.8-.853 1.413-1.52 1.84-2-1.813 1.28-4.16 2.667-7.04 4.16-.107-.107-.133-.187-.08-.24 1.653-1.013 2.907-1.707 3.76-2.08l.48-.72c.64-.32 1.227-.693 1.76-1.12-.48.213-.853.373-1.12.48-.107-.107-.08-.267.08-.48-.853.587-1.44.88-1.76.88-.16 0-.32-.08-.48-.24 3.413-2.453 5.947-4.267 7.6-5.44-2.88 1.44-4.347 2.187-4.4 2.24-.107-.107-.133-.187-.08-.24.96-.8 1.813-1.28 2.56-1.44.16-.533.4-.96.72-1.28-.213.213-.453.32-.72.32-.107 0-.16-.027-.16-.08 0-.053-.08-.08-.24-.08-.107 0-.64.347-1.6 1.04-1.12.8-1.867 1.307-2.24 1.52-1.28.533-2.24.907-2.88 1.12-1.12.427-1.627.64-1.52.64-.8 0-1.387-.053-1.76-.16l-6.56 3.76c-.053 0-.12-.027-.2-.08-.08-.053-.147-.08-.2-.08.16-.48.56-.88 1.2-1.2.853-.373 1.44-.693 1.76-.96l-6.32 2.88c-.213 0-.467.027-.76.08-.293.053-.493.08-.6.08-.373 0-.88-.16-1.52-.48-.853-.427-1.28-.96-1.28-1.6 0-.107.053-.507.16-1.2.107-.693.16-1.173.16-1.44 1.387-.587 2.187-.88 2.4-.88-.48-.16-.827-.267-1.04-.32.373-.267.827-.64 1.36-1.12.533-.48.96-.827 1.28-1.04l.56.48c.267-.32.453-.533.56-.64-.373.213-.72.24-1.04.08l3.6-2.64c-2.4 1.44-3.867 2.16-4.4 2.16-.16 0-.293-.027-.4-.08v-.72c-2.025.84-2.998 1.29-2.92 1.353l.013.005-.058-.005c-.13-.021-.207-.097-.228-.228l-.007-.085c0-1.333.24-3.093.72-5.28.533-1.547 1.013-2.72 1.44-3.52-1.44 1.92-2.32 4.16-2.64 6.72-.053 0-.187-.107-.4-.32.32-1.653.653-3.32 1-5 .347-1.68.92-3.16 1.72-4.44l-.24-.72c-.587.533-1.067 1.28-1.44 2.24-.533 1.547-.853 2.4-.96 2.56-.693 1.387-1.067 2.16-1.12 2.32-.16 1.547-.267 2.693-.32 3.44-.267 1.333-.48 2.347-.64 3.04 0 .373-.107.64-.32.8-.213-.373-.24-.907-.08-1.6.107-1.6.213-3.173.32-4.72.16-2.24.72-3.973 1.68-5.2l.32.32c0-.107.04-.28.12-.52.08-.24.093-.413.04-.52 1.28-2.133 2.267-3.787 2.96-4.96.187-.32.327-.533.42-.64l.024-.025-.047-.033c-.015-.012-.029-.027-.042-.044l-.035-.058c.48-1.067.853-1.867 1.12-2.4l-.48.48-.24-.32c.16-.373.267-.64.32-.8h-.32c-1.867 3.413-3.147 6.027-3.84 7.84-.107.213-.213.32-.32.32-.107-.107-.16-.187-.16-.24.64-1.227 1.36-2.987 2.16-5.28-1.173 1.493-1.973 2.64-2.4 3.44l-.08-.72c.853-1.12 1.28-1.76 1.28-1.92.32-1.12.533-1.76.64-1.92h-.24c-.107.053-.24.08-.4.08-.213 0-.32-.213-.32-.64-.32.32-.533.48-.64.48l-.16-.56c.587-.587 1.013-1.04 1.28-1.36.053.053.147.107.28.16.133.053.227.107.28.16-.16-.16-.267-.24-.32-.24 0-.16.08-.307.24-.44.16-.133.267-.253.32-.36v-1.76c-1.333-.267-2.293-.427-2.88-.48v-.16c.107-.16.293-.24.56-.24-.053 0-.133-.04-.24-.12-.107-.08-.267-.12-.48-.12-.107 0-.227.067-.36.2-.133.133-.253.2-.36.2-.373 0-.987-.08-1.84-.24-.107 0-.293-.107-.56-.32-.267-.213-.453-.32-.56-.32-.107 0-.253.053-.44.16-.187.107-.36.16-.52.16-.107 0-.267-.027-.48-.08-.213-.053-.4-.08-.56-.08-.107 0-.32.053-.64.16-.32.107-.56.16-.72.16-.107 0-.32-.107-.64-.32-.32-.213-.56-.32-.72-.32l.032.003zm66.688-.643l.96-.8c.533-.587.8-1.067.8-1.44 0-.427-.32-.827-.96-1.2.64-1.12.96-1.787.96-2 0-.373-.32-.88-.96-1.52.107-.267.133-.507.08-.72-.213 0-.547-.08-1-.24-.453-.16-.707-.24-.76-.24-.96 0-1.76.48-2.4 1.44-.213.533-.347.96-.4 1.28l-.24-.32c-.213 0-.533.347-.96 1.04l.96.96.56-.56c.373 1.387 1.04 2.213 2 2.48-.053.213-.24.427-.56.64.64.267 1.04.347 1.2.24.373.533.613.853.72.96zm-4.64-6.32l.32-.32c-.213-.747-.373-1.147-.48-1.2l-.56.56v.96h.72zm12.24 6.8c.267-.16.533-.213.8-.16 0-.107.027-.227.08-.36.053-.133.08-.28.08-.44v-.72c-.427-.053-.747-.053-.96 0 0 .107-.053.307-.16.6-.107.293-.16.493-.16.6 0 .053.107.213.32.48zm-15.52.64l.32-.4c.213-.267.267-.56.16-.88-.053.053-.107.133-.16.24-.053.107-.107.187-.16.24 0-.053.027-.187.08-.4v-.48c.053 0 .12.053.2.16.08.107.2.16.36.16.16 0 .347.107.56.32-.16.587-.613.933-1.36 1.04zm1.93-.2c.02-.12.07-.24.15-.36.107-.16.16-.293.16-.4.267 0 .453.053.56.16v1.6c-.267.213-.48.373-.64.48v-1.12c-.16-.267-.24-.347-.24-.24l.01-.12zm-2.57.68l-.08-.16.48-.32.08.16-.48.32zm2.16 0l-.16-.16.32-.32.16.16-.32.32zm9.2 3.76c.747-.64 1.333-1.147 1.76-1.52 1.547-.96 2.693-1.707 3.44-2.24-2.88 1.173-4.72 2.373-5.52 3.6.16.107.267.16.32.16zm-8.72-2.48v-.24l.48-.16.08.24-.56.16zm0 1.2h-.24v-.48h.24v.48zm-2.4 3.2l.24-.32h.56c-.213.213-.48.32-.8.32zm1.04.64v-.24h-.48v.24h.48zm-23.92.56l.48-.48-.16-.16-.48.48.16.16zm22.72 1.04l.4-.32-.08-.24-.48.32.16.24zm-2.24 1.52l1.68-.72-.08-.24-1.6.8v.16zm-25.36 4.88l.32-.96h-.24l-.32.88.24.08zm-.32.72l.24-.56H235l-.16.48.16.08zm26.32 5.92c-.96-.373-2.027-.613-3.2-.72 0-.427.027-.667.08-.72.533.16 1.12.307 1.76.44.64.133 1.093.467 1.36 1zm.24.56l-.72-.24v-.24l.8.32-.08.16zm.24 1.04l-.48-.64.16-.16.48.72-.16.08zm1.04.88c-.053 0-.133-.04-.24-.12-.107-.08-.187-.147-.24-.2-.053-.16.16-.373.64-.64 0 .107-.027.28-.08.52-.053.24-.08.387-.08.44zm.96.48c0-.053-.093-.147-.28-.28-.187-.133-.307-.227-.36-.28.213-.213.24-.453.08-.72.32.373.587.64.8.8-.16.107-.24.267-.24.48zm-23.76 9.44l-1.36-.08v-.24l1.36.08v.24zm-1.52 0h-.96v-.24h.96v.24zm19.36 3.68v-.24l.88-.24.08.16-.96.32zm4.8.56l.64-.64-.08-.16-.64.64.08.16zm-35.28.32h-.8v-.24h.8v.24zm32.56 1.36c-.107-.213-.16-.373-.16-.48.16 0 .267.053.32.16.373-.747.88-1.147 1.52-1.2-.32.64-.88 1.147-1.68 1.52zm-26.64-.16h-1.2v-.24h1.2v.24zm-9.04.64h-.48v-.24h.48v.24zm.88.08h-.64v-.24h.64v.24zm-1.6.16h-.48v-.24h.48v.24zm-6.56.16v-.24l-.72-.16v.24l.72.16zm28.56 0H245v-.24h.56v.24zm-20.56.16l-.96-.16v-.24l.96.16v.24zm30.24 0h-.48v-.24h.48v.24zm-29.28.24l-.88-.16v-.24l.88.16v.24zm4.4 0l-2.32-.16v-.24l2.32.16v.24zm-7.92 0h-.48v-.24h.48v.24zm4.4 0h-.56v-.24h.56v.24zm15.44.16h-.48v-.24h.48v.24zm-9.92 0h-.72v-.24h.72v.24zm1.52 0h-.8v-.24h.8v.24zm18.4.16h-.48v-.24h.48v.24zm-22.08.08l-2.16-.08v-.24l2.16.08v.24zm8.56-.08h-2v-.24h2v.24zm12.96.08h-.48V137h.48v.24zm-26.48.32l-.72-.16v-.24l.72.16v.24zm26 .56v-.24l.48-.16.08.24-.56.16zm-6.08-.16h-.56v-.24h.56v.24zm-14.4.32l-1.52-.32v-.24l1.52.32v.24zm23.2.08l.48-.32-.08-.16-.48.32.08.16zm-14.48-.08h-.8v-.24h.8v.24zm-3.04 0h-.8v-.24h.8v.24zm-3.12 0h-.96v-.24h.96v.24zm7.6 0h-.64v-.24h.64v.24zm4.08.08h-.56v-.24h.56v.24zm4.08.24c-.213-.213-.507-.32-.88-.32h1.04c-.107.16-.16.267-.16.32zm-13.004 1.119l-.196.001c-.107 0-.133-.027-.08-.08.107-.107.107-.16 0-.16s-.253.04-.44.12c-.187.08-.36.12-.52.12-.107 0-.387-.12-.84-.36-.453-.24-.787-.36-1-.36.587 0 1.52-.027 2.8-.08h2c.48 0 .8.08.96.24h.4c.124-.083.12-.134-.014-.152l-.051-.005.103.003c.205.013.43.045.672.096l.25.058c.053-.053 0-.16-.16-.32.16 0 .32.08.48.24.053-.107.08-.213.08-.32h.96c0 .107-.053.213-.16.32.853-.267 1.493-.427 1.92-.48l.32.32c.587-.267 1.2-.4 1.84-.4.053 0 .133.04.24.12.107.08.213.12.32.12.107 0 .213-.067.32-.2l.064-.072c.085-.085.17-.128.256-.128.107 0 .4.027.88.08.48.053.853.08 1.12.08-.053 0-.2.067-.44.2s-.413.2-.52.2c-.16 0-.267-.08-.32-.24l-.08-.24c-.373.373-.56.507-.56.4-.587.32-1.12.48-1.6.48-.267 0-.347-.053-.24-.16-1.013.32-2.08.48-3.2.48l-.24-.32c.053.107-.027.16-.24.16-.16 0-.24-.067-.24-.2s-.027-.2-.08-.2c-.053.053-.08.213-.08.48-.533.107-1.467.16-2.8.16-.053 0-.187-.08-.4-.24-.053 0-.16.04-.32.12-.16.08-.613.12-1.36.12l.196-.001zm5.004-1.039h-.96v-.24h.96v.24zm-9.52.88l-.64-.32.08-.24.64.32-.08.24zm16.56 0v-.24h-.56v.24h.56zm-.56.24v-.24h-.72v.24h.72zm-3.68.56c.64 0 1.333-.08 2.08-.24-.267-.16-.533-.24-.8-.24.16 0-.267.16-1.28.48zm-3.52.32v-.32h-.8v.32h.8zm-11.44-2.96v.24h-.8v-.16h-.4v-.24h.4v.16h.8zm36.839-37.562l-.104.092c-.45.38-1.095.79-1.935 1.23.053-.267.227-.64.52-1.12.293-.48.573-.72.84-.72.213 0 .32.053.32.16.64-.587 1.253-1.013 1.84-1.28-.053 0-.16-.053-.32-.16-.16.267-.347.4-.56.4-.213 0-.347-.027-.4-.08l.4-1.2c.107 0 .187.053.24.16v.472l.022-.075.156-.516.062-.201c.16-.533.24-.88.24-1.04 0-.267-.16-.587-.48-.96v-.48c.053-.267.08-.453.08-.56-.053 0-.147.053-.28.16-.133.107-.28.16-.44.16-.107 0-.133-.053-.08-.16.053-.107.027-.16-.08-.16-.16 0-.293.053-.4.16-.107.107-.187.16-.24.16 0 .32-.027.507-.08.56-.16-.373-.24-.613-.24-.72 0-.16.093-.36.28-.6.187-.24.28-.387.28-.44 0-.107-.053-.453-.16-1.04l-.72-.48c0 .427-.053.773-.16 1.04-.16 0-.267-.027-.32-.08.16-.213.24-.373.24-.48-.32-.16-1.147.08-2.48.72-.16.64-.64.96-1.44.96l.08-.8c.053 0 .16.027.32.08l.24.08v-.24c.107-.053.267-.053.48 0v-.96c-.533.267-.933.453-1.2.56-.053-.053-.12-.16-.2-.32-.08-.16-.147-.24-.2-.24-.213.16-.373.24-.48.24-.16 0-.253-.093-.28-.28-.027-.187-.067-.28-.12-.28l-.32.4c.107 0 .24.08.4.24-.907.587-1.493.88-1.76.88-.213 0-.32-.027-.32-.08-.213.533-1.093 1.067-2.64 1.6-1.067.587-2.107 1.173-3.12 1.76-2.027 1.12-3.2 1.68-3.52 1.68-.107 0-.28.027-.52.08-.24.053-.387.08-.44.08-.053.373-.453.853-1.2 1.44-.533.373-1.093.747-1.68 1.12-1.12.96-1.973 1.733-2.56 2.32v-.56c-.213.587-.8 1.373-1.76 2.36-.96.987-1.627 1.827-2 2.52-2.827 5.227-4.32 8.613-4.48 10.16.107 0 .253.053.44.16.187.107.307.16.36.16.267-.533.613-.8 1.04-.8h.32c0 .053.013.107.04.16.027.053.067.093.12.12v.12h.067c.009.043.013.096.013.16 0 .32-.347.907-1.04 1.76.053 0 .107-.027.16-.08h.24c.107 0 .24.08.4.24 0-.373.187-.64.56-.8.299.299.46.478.486.538l.001.005.046-.117c.125-.295.25-.461.374-.498l.053-.008.08.64c-.747 1.28-1.12 2.08-1.12 2.4 0 .107.04.187.12.24.08.053.12.107.12.16v-.002l-.015-.203c-.047-.937.233-1.567.84-1.89l.135-.065c.053.267.053.613 0 1.04-.053.32.053.587.32.8.213-.213.347-.32.4-.32-.16-.107-.133-.267.08-.48l.08.64c-.16.48-.267.933-.32 1.36-.32.213-.533.427-.64.64.48-.213.827-.453 1.04-.72.16.427.267.773.32 1.04.267-.16.507-.213.72-.16-.16-.373-.16-.693 0-.96h.4c.107.16.133.427.08.8.373-.96.72-1.467 1.04-1.52.267.427.347.8.24 1.12.373-.267.88-.373 1.52-.32-.16-.32-.187-.533-.08-.64.107 0 .28-.027.52-.08.24-.053.413-.08.52-.08.32 0 .64.08.96.24.053-.373.093-.72.12-1.04.027-.32.333-.48.92-.48.267 0 .533.08.8.24-.107-.107-.08-.24.08-.4 1.387.96 2.213 1.467 2.48 1.52-.213-.373-.267-.587-.16-.64.16-.107.373-.16.64-.16.32 0 .533.08.64.24-.107.107-.187.16-.24.16.373 0 .827.107 1.36.32 0-.053-.133-.213-.4-.48l.48-.08c1.813.427 3.16.707 4.04.84.88.133 1.533.227 1.96.28v.56h-2c-.047 0-.095-.002-.146-.005l-.02-.002.199.045 1.386.32.181.042c-1.28.747-2.08 1.147-2.4 1.2.267 0 .453.053.56.16-.187.107-.333.187-.44.24h.28c.213 0 .32.16.32.48-.587.427-1.147.667-1.68.72 0 .053-.107.16-.32.32-4.267 1.067-8.16 1.653-11.68 1.76-1.707.267-3.067.453-4.08.56.213 0 .347.027.4.08-2.347.16-4.587.24-6.72.24-.107 0-.52-.067-1.24-.2s-1.24-.2-1.56-.2c-.107 0-.2-.093-.28-.28-.08-.187-.173-.28-.28-.28-.107 0-.187.053-.24.16-.053.107-.133.16-.24.16-.693 0-1.84-.16-3.44-.48-.427-.213-.773-.4-1.04-.56 0 .213-.107.32-.32.32-.16 0-.267-.053-.32-.16 0 .373-.133.56-.4.56-.427 0-1.093-.24-2-.72 0 .213-.053.373-.16.48-.373-.213-.64-.32-.8-.32l-.24-.24c-1.387-.213-2.4-.4-3.04-.56-.16.107-.213.427-.16.96-.267.053-.48.093-.64.12-.16.027-.32.2-.48.52.373 0 .56.08.56.24-.427.213-.72.507-.88.88.267.32.427.56.48.72.853.533 1.307.8 1.36.8l-.24.24c-.16-.16-.213-.24-.16-.24h-.48c.267.427.4.613.4.56-.16.747-.213 1.147-.16 1.2.907.853 1.627 1.493 2.16 1.92-.053.107-.08.213-.08.32.693 0 1.44.213 2.24.64.427.267.613.4.56.4.107 0 .173-.027.2-.08.027-.053.093-.08.2-.08.373 0 1.067.213 2.08.64-.107.107-.293.16-.56.16-.747 0-1.867-.267-3.36-.8 0 .213-.08.32-.24.32 2.187.373 3.867.64 5.04.8 1.173.16 2.213.373 3.12.64 2.074.543 3.05.835 2.93.875l-.008.002.033-.002c.047-.007.087-.02.12-.04l.045-.035h.32c.267 0 .427.053.48.16-.053.053-.08.107-.08.16 0 .107.187.24.56.4l.56.24c0-.267.133-.4.4-.4.16 0 .333.093.52.28.187.187.333.28.44.28.107 0 .293-.027.56-.08h.32c-.213 0-.453-.133-.72-.4.213-.053.4-.053.56 0 .16.107.293.16.4.16.107 0 .133-.04.08-.12-.053-.08 0-.12.16-.12h.4c.107.053.187.08.24.08.533.32.88.48 1.04.48.16 0 .453.027.88.08h.8c1.6 0 4.32-.24 8.16-.72.853-.213 1.52-.4 2-.56-.107-.16-.133-.293-.08-.4.32.32.533.48.64.48.16 0 .56-.027 1.2-.08.64-.053 1.027-.08 1.16-.08s.4-.147.8-.44c.4-.293.653-.44.76-.44l.48.16c.107 0 .387-.12.84-.36.453-.24.787-.387 1-.44-.107 0-.24-.08-.4-.24l.16-.24c.107 0 .213.053.32.16l-.4-.48c.16-.16.347-.24.56-.24.053 0 .16.08.32.24-.107.107-.24.16-.4.16.107 0 .36.027.76.08.4.053.653.08.76.08-.053-.053-.147-.093-.28-.12-.133-.027-.227-.04-.28-.04.053-.053.133-.12.24-.2.107-.08.187-.147.24-.2.053.053.08.133.08.24 0 .107.08.16.24.16.107 0 .253-.067.44-.2s.333-.2.44-.2c.107 0 .16.027.16.08 0 .053.053.08.16.08.427 0 .773-.267 1.04-.8-.213 0-.267-.08-.16-.24.853-.267 1.253-.4 1.2-.4.267 0 .507.24.72.72.8-.533 1.413-.907 1.84-1.12.267-.373.427-.693.48-.96l-.4.24c-.107-.053-.187-.107-.24-.16.32-.32.56-.587.72-.8l.239.239c.099-.153.17-.268.213-.347l.028-.052c1.013-1.28 1.787-2.88 2.32-4.8.267-.907.587-2.507.96-4.8.213.853.213 1.52 0 2 .107 0 .24.053.4.16-.107-.96-.107-1.6 0-1.92.107-.427.16-.827.16-1.2 0-.267-.88-.987-2.64-2.16.053-.053.093-.147.12-.28.027-.133.067-.227.12-.28l-.94-1.019-.016-.015.014.018c.012.03-.024.048-.107.054l-.071.002h-.4c-.107-.053-.187-.08-.24-.08-.053 0-.267-.4-.64-1.2l.16-.08c-.747-.747-1.547-1.213-2.4-1.4-.853-.187-1.387-.387-1.6-.6l-.32.32c-.427-.213-1.067-.347-1.92-.4-.853-.053-1.44-.147-1.76-.28-.32-.133-.907-.2-1.76-.2-.107 0-.227-.067-.36-.2-.133-.133-.253-.2-.36-.2-.107 0-.16.027-.16.08 0 .053-.053.08-.16.08-.107 0-.587-.053-1.44-.16-.267-.747-.427-1.307-.48-1.68-.32-.32-.56-.573-.72-.76-.16-.187-.24-.467-.24-.84 0-.427.453-.747 1.36-.96l.32-.24c.267.053.467.013.6-.12.133-.133.253-.227.36-.28l1.28-.4 1.92-.96c1.28-.64 2.08-.96 2.4-.96.16 0 .2.053.12.16-.08.107-.067.16.04.16.107 0 .213-.053.32-.16.107-.107.187-.133.24-.08-.213-.213-.24-.373-.08-.48h.48l.72-.48c.48-.32.987-.427 1.52-.32-.16.107-.267.16-.32.16.053 0 .16-.027.32-.08.16-.053.267-.08.32-.08-.107 0-.133-.053-.08-.16.747-.587 1.147-.907 1.2-.96-.053-.267.187-.573.72-.92.533-.347.933-.467 1.2-.36.427-.373.667-.56.72-.56-.373 0-.853-.08-1.44-.24l.24-.24.4.08-.08-.16c1.707-.853 2.64-1.307 2.8-1.36-.352-.235-.432-.498-.239-.79l.038-.052zM290.68 79.4V79h-.32v.4h.32zm-10.16 2.64h-.24l.32-2.24h.317l.001.012-.398 2.228zM299 99.32l.24-.64H299l-.24.56.24.08zm-3.28 2.16l1.2-1.92-.24-.16-1.2 1.92.24.16zm2.8-.8l.4-.64-.24-.16-.4.64.24.16zm1.36 11.44c1.6-2.347 2.827-4.107 3.68-5.28 1.227-2.453 2.133-4.32 2.72-5.6l-6.4 10.88zm2.16-5.36l-.24-.16.64-1.52h.24l-.64 1.68zm-12.96 3.6l.72-.72-.16-.16-.72.72.16.16zm10.4 0l-.16-.16.32-.56.24.16-.4.56zm-6.88.64l-.16-.64-.24.08.16.56h.24zm38.32 1.36v-.24h-.48v.24h.48zm-37.04 4.8l-.16-.16 1.52-1.68.16.08-1.52 1.76zm29.12-.48v-.24l1.04-.56.08.24-1.12.56zm-30.48 2l-.16-.24 1.04-1.04.24.16-1.12 1.12zm3.84-.8v-.32h-.48v.32h.48zm.8.32l.08-.24-.64-.24v.24l.56.24zm.8.32l.08-.24-.64-.24v.24l.56.24zm-9.28 8.16h-.27l-.004-.012-.089-.205-.117-.583h.32l.16.8zm-.8 0v-.4h-.32v.4h.32zm7.44 5.68l-.8-.32.08-.24.8.32-.08.24zm9.44 2.24c-1.173-.16-2.347-.293-3.52-.4-1.44-.213-2.613-.613-3.52-1.2h.56c.107 0 1.107.213 3 .64 1.893.427 2.893.64 3 .64.32 0 .48.107.48.32zm-17.279-8.878l-.001-.082c-.053-.213.053-.347.32-.4.16.384.314.748.46 1.091l.057.132.043.217h.05l.137.311c.416.95.774 1.716 1.075 2.3l.098.189c.16.48.24.853.24 1.12.747.853 1.333 1.467 1.76 1.84-.32-.427-.533-.747-.64-.96.267-.053.52.053.76.32s.387.4.44.4h.24l-.04.08c-.027.053-.067.107-.12.16.053-.053.187-.08.4-.08-.16 0 .293.24 1.36.72.16.213.267.373.32.48 2.88 1.6 5.867 2.4 8.96 2.4 1.173 0 2.347-.187 3.52-.56 1.707-.64 2.72-.96 3.04-.96.107 0 .187.067.24.2.053.133.16.173.32.12h2.16c0-.533.213-.827.64-.88.427-.053.853-.08 1.28-.08.693-.053 1.467-.453 2.32-1.2.747-.587 1.467-1.173 2.16-1.76.053-.213.04-.453-.04-.72-.08-.267-.12-.427-.12-.48l.356-.498.044-.062c1.333-.853 2.56-1.68 3.68-2.48-.373 0-.56-.08-.56-.24.587-.32.933-.48 1.04-.48v-.56c0-.533.373-.747 1.12-.64l-.48-.48c.267-.267.573-.533.92-.8.347-.267.547-.427.6-.48-.48.267-.827.347-1.04.24.747-.853 1.413-1.387 2-1.6.48-.533.853-.987 1.12-1.36v-.56c-1.227.747-2.08 1.12-2.56 1.12-.32 0-.507-.027-.56-.08l.783-.737c-.684.597-1.252.92-1.703.97l-.12.007h-.27c.016-.03.025-.082.028-.157l.002-.083-.56-.56c-.373.373-.933.747-1.68 1.12-.107-.107-.133-.187-.08-.24 2.187-1.92 3.68-3.333 4.48-4.24-.107-.48.133-1.013.72-1.6.533-.427 1.04-.853 1.52-1.28.213-.32.373-.587.48-.8.587-.48 1.28-.693 2.08-.64-.907-.267-1.387-.4-1.44-.4-.213 0-.68.133-1.4.4-.72.267-1.133.4-1.24.4-.16 0-.24-.027-.24-.08 0-.053-.053-.08-.16-.08-.64 0-2.787 1.133-6.44 3.4-3.653 2.267-5.507 3.4-5.56 3.4-.373 0-.56-.187-.56-.56 2.4-1.707 4-2.907 4.8-3.6-6.133 4.373-10.08 6.56-11.84 6.56-.107 0-.147-.053-.12-.16.027-.107-.04-.16-.2-.16-.107 0-.893.053-2.36.16-1.467.107-2.253.16-2.36.16.267 0-1.227-.347-4.48-1.04-1.12-.267-1.827-.467-2.12-.6-.293-.133-.68-.44-1.16-.92.48-.693.88-1.12 1.2-1.28-.107-.107-.027-.213.24-.32.693-.053.96-.08.8-.08l-.4-.16c.32-.64.613-1.04.88-1.2.373.427.667.747.88.96-.47-.894-.734-1.331-.789-1.312l-.007.008.015-.035c.084-.171.441-.614 1.07-1.33l.151-.171c.827-.933 1.32-1.533 1.48-1.8 1.387-1.813 2.587-3.867 3.6-6.16.8-1.813 1.6-3.653 2.4-5.52-.213.427-.507.827-.88 1.2 0-.16.027-.667.08-1.52-.107 0-.24-.053-.4-.16-.107.107-.32.48-.64 1.12-.213.427-.48.613-.8.56v-.56c.267-.48.48-1.12.64-1.92-.533-.373-.933-.667-1.2-.88-3.467 6.987-6.987 12.053-10.56 15.2-.747-.96-1.173-1.573-1.28-1.84-.96-.907-1.44-1.893-1.44-2.96l1.84-25.44c0-.107-.067-.333-.2-.68-.133-.347-.2-.573-.2-.68.107-1.227.133-2.133.08-2.72-.16-.16-.24-.907-.24-2.24 0-.213-.147-.56-.44-1.04-.293-.48-.467-.773-.52-.88-.053.64-.373.96-.96.96-.16 0-.293-.053-.4-.16-.107-.107-.213-.16-.32-.16-.16 0-.24.053-.24.16 0 .107-.08.16-.24.16-.107 0-.24-.027-.4-.08-.16-.053-.267-.08-.32-.08-.64 0-1.067.08-1.28.24-.533-.533-.987-.88-1.36-1.04-.96 3.573-1.547 6.347-1.76 8.32-.213.32-.373.48-.48.48 0-1.636-.024-3.046-.071-4.231l-.011-.237.002-.012h-.003l-.003-.1c-.016-.342-.033-.664-.053-.965l-.021-.295c-.047-1.082-.073-1.666-.079-1.752l-.001-.008-.118.368c-.85 2.658-1.363 4.443-1.54 5.353l-.022.119c-.747 4.64-1.333 10.72-1.76 18.24-.64 10.453-1.013 16.587-1.12 18.4l-.64.64c.16.693.24 1.307.24 1.84.053.907.053 1.413 0 1.52-.107.48-.213.8-.32.96-.107 3.093-.373 5.36-.8 6.8-.32.533-.613.907-.88 1.12v.56c0-.16.08-.24.24-.24h.4c.16.16.267.293.32.4-.32.267-.48.587-.48.96s.267 1.013.8 1.92c1.067-.853 1.627-1.307 1.68-1.36.48.693.88 1.253 1.2 1.68.64-1.013 1.067-1.573 1.28-1.68.427.427.64.747.64.96 0 .053-.187.373-.56.96l.64.56c1.12-1.653 1.947-2.853 2.48-3.6.533.267.827.453.88.56-.213.213-.32.4-.32.56.213 0 .467.093.76.28.293.187.493.28.6.28.587 0 .827-.08.72-.24 1.067-4.053 1.707-7.04 1.92-8.96l.24-.24c.107.107.187.213.24.32l.001.002zM372.68 79.72l.64-.88-.16-.16-.64.88.16.16zm-46.96 8.08c.64-.427 1.28-.88 1.92-1.36.907-.747 1.36-1.387 1.36-1.92 0-.107-.053-.293-.16-.56-.107-.267-.16-.427-.16-.48V82.2c-.053-.053-.4-.827-1.04-2.32-.373-.747-.96-1.12-1.76-1.12-.587 0-1.12.4-1.6 1.2-.267.533-.533 1.04-.8 1.52-.16-.107-.4-.16-.72-.16-.907 0-1.36.693-1.36 2.08 0 .853.16 1.653.48 2.4.427.907 1.013 1.36 1.76 1.36.107 0 .16-.027.16-.08h.24c.48 0 1.04.24 1.68.72zm46.08-6.48c.053-.107.147-.333.28-.68.133-.347.227-.6.28-.76-.48.533-.72.88-.72 1.04 0 .16.027.267.08.32l.035.035.045.045zm1.04 1.2l.48-.48c-.107-.107-.16-.267-.16-.48-.213.427-.32.747-.32.96zm-35.491 2.713l.036-.02c.071-.043.183-.14.335-.293v-.96c-.747-.267-1.333-.453-1.76-.56-.053.64-.08 1.067-.08 1.28.922.307 1.41.488 1.465.543l.004.01zM320.68 94.44c.32 0 .56-.16.72-.48 1.12-1.813 1.68-2.933 1.68-3.36 0-.16-.173-.333-.52-.52-.347-.187-.6-.28-.76-.28-.107 0-.2.04-.28.12-.08.08-.147.12-.2.12-.16-.267-.333-.547-.52-.84-.187-.293-.44-.44-.76-.44-1.28 0-1.92.773-1.92 2.32 0 .213.08.747.24 1.6.533.747.907 1.2 1.12 1.36.427.267.827.4 1.2.4zm47.68-4.4l-.16-.08.48-.48.08.16-.4.4zm-38.88 3.28c-.213 0 .24-.32 1.36-.96v-.88c-.64-.427-1.147-.64-1.52-.64-.48 0-.72.347-.72 1.04 0 .96.293 1.44.88 1.44zm-5.36.72c.747 0 1.12-.24 1.12-.72 0-.533-.48-.8-1.44-.8-.373 0-.667.187-.88.56.373.64.773.96 1.2.96zm20.08 3.92v-.16c-.053-.107-.08-.24-.08-.4 0-.267.187-.613.56-1.04.16.107.213.587.16 1.44-.053 0-.16.027-.32.08-.16.053-.267.08-.32.08zm28 1.52h-.24v-.56h.24v.56zm-8.08.64h-.24l.16-.72h.24l-.16.72zm7.44.56h-.16l.16-.88h.24l-.24.88zm-7.92.56c.16-.267.293-.507.4-.72 0 .053.027.147.08.28.053.133.08.227.08.28-.213 0-.4.053-.56.16zm-.4.32H363l.16-.72h.16l-.08.72zm9.92.56l.32-.64h-.16l-.32.56.16.08zm-48.64.64l-.24-.08.16-.4h.24l-.16.48zm37.04 4.8c0-.16-.053-.293-.16-.4l-.4.24c0-.053.04-.24.12-.56.08-.32.12-.56.12-.72.053.107.093.267.12.48.027.213.04.373.04.48.48-1.067.773-1.973.88-2.72.373-.213.507-.48.4-.8.053-.107.133-.16.24-.16 0 .053.027.12.08.2.053.08.08.2.08.36 0 .16-.507 1.36-1.52 3.6zm-37.04-2.96l-.24-.08.16-.4h.24l-.16.48zm5.6 2.08c-.053-.16-.08-.293-.08-.4l.16-.08c.053-.747.053-1.2 0-1.36.16.107.293.16.4.16v1.12c-.267.267-.427.453-.48.56zm22 .4c-.267-.267-.4-.427-.4-.48 0-.053.133-.427.4-1.12v1.6zm18.72-.56h-.24c.107-.16.267-.427.48-.8 0 .16-.08.427-.24.8zm-17.76 1.44h-.24v-1.04h.24v1.04zm6.72 4.24v-.88c.213-.267.32-.507.32-.72.053-.16 0-.4-.16-.72.373-.96.693-1.733.96-2.32 0 .64-.08 1.28-.24 1.92.053.16.16.24.32.24-.16.107-.293.493-.4 1.16-.107.667-.373 1.107-.8 1.32zm-34.32-1.04c-.373-.373-.48-.907-.32-1.6-.267-.427-.4-.827-.4-1.2v-.72c.213.32.4.56.56.72.053 1.173.107 2.107.16 2.8zm26.56-.72c-.053-.213-.08-.933-.08-2.16 0 .107.027.267.08.48.053.213.107.4.16.56-.091.686-.144 1.058-.157 1.117l-.003.007v-.004zm0 1.04l-.24-.08.16-.4h.24l-.16.48zm0 .48l-.24-.08.16-.4h.24l-.16.48zm.4 10.64l-.56-8.72c0-.107.027-.36.08-.76.053-.4.08-.707.08-.92l.4 10.4zm1.04-8.56h-.24v-.48h.24v.48zm.16 2.48h-.24v-1.12h.24v1.12zm.08 1.84h-.24v-1.2h.24v1.2zm.16.88h-.24v-.48h.24v.48zm9.28 12.4l.32-.48-.16-.16-.32.48.16.16zm-.72.72c.373-.16.56-.373.56-.64-.16.213-.4.32-.72.32.053.053.107.16.16.32zm13.446-46.291c-.047.013-.102.03-.166.051h-.48v-.4c-.693.907-1.227 1.573-1.6 2-.107-1.173.32-2.133 1.28-2.88.107.107.16.187.16.24.373-.427.693-.693.96-.8-.48-.587-.32-1.2.48-1.84v-.48c-.267.267-.4.507-.4.72-.267.213-.48.373-.64.48-.16-.16-.267-.24-.32-.24.053.32-.213 1.013-.8 2.08-.16-.213-.187-.32-.08-.32-.16 0-.213.133-.16.4.053.267-.107.507-.48.72l-4.32 7.36c-.107-.32-.08-.64.08-.96 1.493-2.987 3.227-6.133 5.2-9.44-.747.96-1.147 1.44-1.2 1.44-.107 0-.187-.027-.24-.08.373-.587.533-1.2.48-1.84-.16.267-.293.507-.4.72-.107-.107-.16-.187-.16-.24l-.311 1.011-.009.029c-.427.48-.747.827-.96 1.04-.053-.053-.08-.213-.08-.48-.907 1.44-1.573 2.507-2 3.2-.693 1.013-1.253 1.76-1.68 2.24-.373 1.173-.613 2.08-.72 2.72-.213.32-.373.507-.48.56.213.053.24.267.08.64-1.013 2.027-1.52 3.093-1.52 3.2v.32l-.08.16c-.107 0-.08.08.08.24-.48.213-.667.32-.56.32h-.32c0 .107.107.213.32.32.107.107.053.187-.16.24-.373.16-.587.267-.64.32l-.08-.64c.32-.373.507-.667.56-.88.16.16.267.24.32.24-.267-.267-.293-.693-.08-1.28.16-.64.453-1.04.88-1.2l-.16-.4c.8-1.547 1.307-2.96 1.52-4.24-.48.853-.853 1.52-1.12 2-.053.053-.133.08-.24.08-.32-.267-.48-.48-.48-.64-.747 2.027-1.387 3.547-1.92 4.56.053.16.08.267.08.32-.053.16-.187.293-.4.4 0 .373-.107.827-.32 1.36-1.333 3.253-2.587 6.933-3.76 11.04l-.168.581c-1.295 4.415-2.785 7.875-4.472 10.379-.16-1.76-.267-3.04-.32-3.84-.267-4.267-.4-6.48-.4-6.64 0 .053-.04.227-.12.52-.08.293-.147.52-.2.68-.373-1.333-.4-2.293-.08-2.88.16.693.267 1.2.32 1.52v-10c-.16.16-.293.16-.4 0-.213.8-.347 1.28-.4 1.44-.16-.32-.267-.587-.32-.8 0 .32-.027.733-.08 1.24-.053.507-.08.84-.08 1-.213 0-.373.053-.48.16.32.64.32 1.12 0 1.44-.053 0-.107-.053-.16-.16 0-.48.027-.64.08-.48 0-.213-.107-1.68-.32-4.4-.107-1.707-.48-3.147-1.12-4.32-.373.16-.64.24-.8.24l-1.2-.4-.72 1.2c-.373.213-.507.32-.4.32-.373 0-.613.053-.72.16-.533-.8-1.04-1.2-1.52-1.2-.427 0-.933.333-1.52 1s-.933 1.24-1.04 1.72c-.427 1.92-.587 3.733-.48 5.44-.107.16-.453.467-1.04.92s-.813.853-.68 1.2c.133.347-.04.68-.52 1 0 .48.027.827.08 1.04-.053.533-.24.933-.56 1.2-.107-.053-.16-.107-.16-.16-.053.427-.32.96-.8 1.6-.053.533-.213 1.04-.48 1.52.053.107.08.187.08.24-.16.267-.293.453-.4.56-.053-.053-.187-.08-.4-.08.053.053.147.107.28.16.133.053.2.107.2.16-.107.267-.267.653-.48 1.16-.213.507-.4.893-.56 1.16.053.213 0 .4-.16.56.213.053.16.32-.16.8l-.32-.32c.107.16-.053.56-.48 1.2.213.213.213.347 0 .4-.267-.373-.453-.64-.56-.8-.747-2.613-1.333-5.013-1.76-7.2-.427-2.4-.733-4.36-.92-5.88-.187-1.52-.307-2.707-.36-3.56-.373-2.027-.827-3.04-1.36-3.04-.107 0-.227.027-.36.08-.133.053-.227.08-.28.08.259 1.08.413 1.582.463 1.508l.005-.014-.014.074c-.06.224-.224.383-.492.476l-.122.036c-.427.107-.827.213-1.2.32-.427-.747-.64-1.067-.64-.96 0-.107.093-.467.28-1.08.187-.613.28-.973.28-1.08 0-.213-.227-.547-.68-1-.453-.453-.84-.68-1.16-.68-.373 0-.787.347-1.24 1.04-.453.693-.68 1.227-.68 1.6 0 .533.187 1.04.56 1.52.587.8 1.013 1.44 1.28 1.92-.107.053-.293.08-.56.08-.16-.267-.48-.587-.96-.96-.16.533-.24.933-.24 1.2-.48-.427-.773-.64-.88-.64-.267 0-.453.133-.56.4-.213-.16-.347-.293-.4-.4.107-.587.107-1.013 0-1.28-.213-.48-.507-.8-.88-.96h-.48c0 .053-.04.133-.12.24-.08.107-.12.213-.12.32 0 .213.187.627.56 1.24.373.613.64.92.8.92.107 0 .2-.027.28-.08.08-.053.147-.08.2-.08.587.64.88 1.36.88 2.16 0 .213-.027.32-.08.32-.107-.213-.213-.44-.32-.68-.107-.24-.293-.36-.56-.36-.107 0-.2.053-.28.16-.08.107-.147.16-.2.16 0 .373.267.773.8 1.2 0 .533-.053.747-.16.64h-.32c-.267-.533-.48-.933-.64-1.2-.107.107-.267.16-.48.16.213.427.4.693.56.8l-.24.16c-.053 0-.12-.027-.2-.08-.08-.053-.147-.107-.2-.16 0 .373.027.507.08.4-.587 1.013-.88 2.107-.88 3.28 0 3.52.453 7.12 1.36 10.8.373 1.12.667 1.947.88 2.48.053.267.293.4.72.4-1.013-2.773-1.627-5.84-1.84-9.2.373.16.587.427.64.8v.96c.267 1.547.533 2.773.8 3.68.747 3.04 1.653 6.027 2.72 8.96.587 1.6 1.413 3.04 2.48 4.32.587.747 1.04 1.333 1.36 1.76l1.6 1.44c.587 1.493 1.627 2.24 3.12 2.24.587 0 .96-.133 1.12-.4.053-.587.213-1.067.48-1.44.213 0 .52.027.92.08.4.053.68.08.84.08.907.373 1.28.56 1.12.56.48 0 1.307-.867 2.48-2.6s1.84-2.627 2-2.68c-.053-.16-.107-.293-.16-.4.373-1.067.747-1.6 1.12-1.6.48 0 .693.32.64.96l-.12.24c-.08.16-.12.267-.12.32.427 0 1.227.853 2.4 2.56.32.053.48.133.48.24.267.747.667 1.2 1.2 1.36.693-.107 1.813 0 3.36.32.213.16.267.24.16.24.16 0 .227-.053.2-.16-.027-.107.013-.16.12-.16-.16 0 1.173.427 4 1.28-.427-.64-.72-1.12-.88-1.44.693-.107 1.093-.08 1.2.08l-.08-.64c-.053-.267.053-.453.32-.56.48.693.747 1.04.8 1.04.053 0 .133.027.24.08.107.053.213.08.32.08.107 0 .2-.067.28-.2.08-.133.173-.2.28-.2.107 0 .267.08.48.24.213.16.373.24.48.24.427-.427.773-.72 1.04-.88.373-.64.587-1.027.64-1.16.053-.133.08-.28.08-.44 1.707-2.027 3.6-5.973 5.68-11.84l3.44-10.64c-.267-.373-.507-.64-.72-.8.267-.48.453-.827.56-1.04-.16.16-.293.24-.4.24-.16 0-.24-.107-.24-.32.16-.107.373-.133.64-.08.533-1.92.8-2.827.8-2.72v-.001l-.005-.089c-.01-.083-.033-.147-.072-.192l-.043-.038c-.08-.053-.12-.107-.12-.16v-.08l.32.24c0-.32.027-.507.08-.56.853-1.813 1.28-2.88 1.28-3.2 0-.16-.133-.453-.4-.88-.16.373-.267.587-.32.64-.107-.053-.133-.107-.08-.16v-.16c.267-.427.267-.693 0-.8l.24.08c-.16-.32-.24-.613-.24-.88s.08-.56.24-.88c.16-.32.24-.533.24-.64 0-.48.133-1.04.4-1.68.533-1.547.88-2.533 1.04-2.96.587-1.547 1.067-2.693 1.44-3.44-1.067 1.653-1.68 2.693-1.84 3.12-.107.16-.24.24-.4.24-.053-.427.373-1.653 1.28-3.68-.053-.16-.107-.293-.16-.4.427-1.28.933-1.947 1.52-2l-.154.029zM406.44 94.6c.693-.267 1.067-.853 1.12-1.76v-2.16c-.32-.267-.587-.4-.8-.4-.747 0-1.12.587-1.12 1.76 0 .16.04.48.12.96.08.48.173.827.28 1.04.107.213.24.4.4.56zm8.96 3.12c1.44-1.44 2.16-2.347 2.16-2.72 0-.267-.267-.88-.8-1.84-.533-.96-1.067-1.44-1.6-1.44-.16 0-.453.027-.88.08-.427.053-.693.08-.8.08-.16 0-.467-.147-.92-.44-.453-.293-.733-.44-.84-.44-.8 0-1.547.427-2.24 1.28.213.427.413.8.6 1.12.187.32.52.48 1 .48.16 0 .28-.027.36-.08.08-.053.2-.08.36-.08.267 0 .4.293.4.88-.053.48-.133.8-.24.96.267.48.48.827.64 1.04 1.173.533 2.107.907 2.8 1.12zm-10.48 1.84c-.053 0-.32-.133-.8-.4-.267-.107-.533-.16-.8-.16-.053-.213-.293-.48-.72-.8.853-.32 1.547-.48 2.08-.48.427 0 .933.08 1.52.24-.267 0-.507.187-.72.56-.32.693-.507 1.04-.56 1.04zm1.28 1.6c0-.32.053-.533.16-.64-.053 0-.08-.067-.08-.2s-.08-.2-.24-.2c-.16 0-.28.027-.36.08-.08.053-.147.08-.2.08 0-.053.107-.187.32-.4-.053-.107-.213-.16-.48-.16.427-.587.72-1.147.88-1.68.693 0 1.28.04 1.76.12.48.08.693.12.64.12-.267.96-.533 1.653-.8 2.08.053.107.133.16.24.16-.16.053-.467.147-.92.28-.453.133-.76.253-.92.36zm-3.6-2v-.24l.4-.24.08.24-.48.24zm4.08.32l.4-.48-.16-.16-.4.4.16.24zm-1.6 1.52l-.64-.32c.053 0 .187-.04.4-.12.213-.08.347-.12.4-.12.213 0 .16.187-.16.56zm4.88.08l-.08-.2c-.053-.133-.08-.28-.08-.44-.107 0-.24.04-.4.12-.16.08-.267.12-.32.12.32.267.613.4.88.4zm3.36 2.16l.48-.4-.16-.16-.48.4.16.16zm-.8.64l.4-.8-.24-.08-.4.8.24.08zm-.32 1.6l.96-1.28-.24-.16-.96 1.28.24.16zm20.96 4.08c0-.053.027-.16.08-.32.053-.16.08-.32.08-.48 0-.16-.067-.333-.2-.52s-.227-.307-.28-.36c-.16-1.12-.293-1.867-.4-2.24h-.8c-.053.213-.08.453-.08.72 0 .213.04.547.12 1 .08.453.12.787.12 1 0 .093-.008.178-.025.255l-.029.1.089.119c.22.295.38.515.48.66l.045.066h.8zm-23.04 1.6l1.28-2-.24-.16-1.28 2 .24.16zm.24 5.44l.48-1.68h-.24l-.56 1.6.32.08zm-13.2.16l.16-1.36H397l-.16 1.36h.32zm-7.52-.08l.4-.64-.16-.16-.48.64.24.16zm18.96 3.36h-.24l.32-2.4h.32l-.4 2.4zm-31.44-.16h-.24v-1.2h.24v1.2zm38.08 1.36c0-.213.187-.533.56-.96-.107-.107-.187-.24-.24-.4-.053 0-.32.267-.8.8.053.053.133.147.24.28.107.133.187.227.24.28zm-37.68 1.36c-.427-1.12-.64-1.733-.64-1.84 0-.48.213-.72.64-.72v2.56zm39.28-1.36c0-.427.027-.667.08-.72l-.72.72h.64zM406.76 125h-.24l-.24-.4.24-.08.24.48zm-.88 1.04h-.32v-.64h.32v.64zm0 1.04h-.32v-.64h.32v.64zm-21.52 3.52c-.587-.267-1.52-.853-2.8-1.76l.08-.24-.32.24-1.12-1.2c1.013.587 2.4 1.573 4.16 2.96zm10.96.32v-.24h-1.68v.24h1.68zm.8.16l.08-.24-.64-.16v.24l.56.16zm-8 3.28c.747 0 1.2-.347 1.36-1.04-.107.107-.24.16-.4.16-.107 0-.827-.347-2.16-1.04.693.48 1.2.907 1.52 1.28-.053.053-.12.093-.2.12-.08.027-.147.067-.2.12-2.347-1.067-4.08-1.893-5.2-2.48.32.267 1.067.773 2.24 1.52 1.493.907 2.507 1.36 3.04 1.36zm3.6-1.12c-.16-.16-.107-.347.16-.56-.8 0-1.28-.027-1.44-.08h-.72c-.053 0-.12.067-.2.2-.08.133-.147.2-.2.2.587.16 1.387.24 2.4.24zm4.4 1.12c.533-.213.96-.373 1.28-.48-.053-.053-.267-.08-.64-.08l-.4-.4c.48-.267.8-.4.96-.4-.16 0-.427.027-.8.08-.373.053-.6.093-.68.12-.08.027-.147.147-.2.36-.053.213-.08.347-.08.4.053.053.147.107.28.16.133.053.227.133.28.24zm4.16-29.92c.16-.213.4-.32.72-.32-2.293 3.893-3.52 9.227-3.68 16 0 1.067-.107 1.893-.32 2.48-.107 0-.293.093-.56.28-.267.187-.48.28-.64.28-.16 0-.227-.027-.2-.08.027-.053-.04-.08-.2-.08-.107 0-.88.253-2.32.76s-2.24.76-2.4.76c-.907 0-1.653-.693-2.24-2.08-.427-1.013-.64-1.84-.64-2.48 0-1.12.347-2.747 1.04-4.88 0-.853.427-2.027 1.28-3.52.32-.587 1.2-2 2.64-4.24l-.006.01-.794 1.43c-.336.576-.5 1.044-.49 1.404l.01.116c1.227-1.813 2.187-3.227 2.88-4.24.32-.107.613-.213.88-.32 1.867-1.547 3.733-2.587 5.6-3.12-.053-.053-.187-.08-.4-.08-.693 0-1.653.32-2.88.96-1.387.747-2.32 1.52-2.8 2.32-.267-.267-.48-.4-.64-.4.747-1.173 2.32-2.613 4.72-4.32.693-.533 1.333-.8 1.92-.8-.16 0 .24.107 1.2.32.267-.213.293-.427.08-.64.107 0 .267.107.48.32.213 0 .347-.027.4-.08l-.32-.4h1.36l-1.92 2.56.16-.32c0-.213-.027-.347-.08-.4h-.64c-.213.587-.4 1.04-.56 1.36-.16.107-.48.16-.96.16v1.12c.213-.213.32-.373.32-.48v.64zm-1.728-9.117c.036.021-.524.13-1.68.324l-.432.073c-2.507.427-4.067.773-4.68 1.04-.613.267-1.36.693-2.24 1.28-.88.587-1.373.88-1.48.88-.267 0-.4-.053-.4-.16 0 .32-.08.48-.24.48-.107-.107-.267-.16-.48-.16.107.32-.013.72-.36 1.2s-.68.72-1 .72c-.48 0-.933-.16-1.36-.48.533-.533 1.04-.88 1.52-1.04-.16-.107-.907.32-2.24 1.28-.427.16-.8.267-1.12.32-1.707.853-3.28 2.84-4.72 5.96s-2.107 5.667-2 7.64c.053.107.027.253-.08.44s-.16.333-.16.44c0 .8.107 1.92.32 3.36.32 2.613 1.227 5.04 2.72 7.28l1.52 2.24c2.4 1.867 4.053 2.8 4.96 2.8.16 0 .227-.027.2-.08-.027-.053.04-.08.2-.08.107 0 .467.173 1.08.52.613.347 1 .52 1.16.52.107 0 .52-.067 1.24-.2s1.24-.2 1.56-.2c-.48-.267-.907-.4-1.28-.4l.097.005.05.007c.114.024.133.083.058.178l-.045.05h-1.84c-.64 0-1.493-.427-2.56-1.28.053-.053.133-.093.24-.12.107-.027.187-.067.24-.12 1.013.267 1.653.48 1.92.64-.213-.213-.187-.32.08-.32.48 0 .96.293 1.44.88 0-.16-.053-.307-.16-.44-.107-.133-.16-.227-.16-.28 2.507-.373 4.427-.56 5.76-.56.16 0 .427-.107.8-.32.373-.213.64-.32.8-.32.16 0 .613.307 1.36.92.747.613 1.12 1.08 1.12 1.4 0 .16-.08.24-.24.24-.48 0-1.04.133-1.68.4-.96.373-1.52.56-1.68.56.107 0 .24.027.4.08h.56c.16 0 .24-.067.24-.2s.027-.227.08-.28l.4.32c.16-.16.32-.293.48-.4l1.68-.24c.16 0 .36.173.6.52.24.347.387.547.44.6 2.293 1.653 3.893 2.693 4.8 3.12.213.107.987.16 2.32.16-.693-.373-1.093-.613-1.2-.72.587 0 1.307.04 2.16.12.731.069 1.13.108 1.195.118l.008.002.025-.001c.223-.014 1.23-.172 3.018-.473l.274-.046c2.053-.347 3.16-.52 3.32-.52.16 0 .333.053.52.16.187.107.36.16.52.16.16 0 .88-.32 2.16-.96 1.547-.8 2.533-1.28 2.96-1.44.213-.267.373-.48.48-.64 1.547-.587 2.533-1.013 2.96-1.28 1.6-1.333 2.8-2.4 3.6-3.2 1.173-.693 2.027-1.173 2.56-1.44.8-.853 1.413-1.52 1.84-2-1.813 1.28-4.16 2.667-7.04 4.16-.107-.107-.133-.187-.08-.24 1.653-1.013 2.907-1.707 3.76-2.08l.48-.72c.64-.32 1.227-.693 1.76-1.12-.48.213-.853.373-1.12.48-.107-.107-.08-.267.08-.48-.853.587-1.44.88-1.76.88-.16 0-.32-.08-.48-.24 3.413-2.453 5.947-4.267 7.6-5.44-2.88 1.44-4.347 2.187-4.4 2.24-.107-.107-.133-.187-.08-.24.96-.8 1.813-1.28 2.56-1.44.16-.533.4-.96.72-1.28-.213.213-.453.32-.72.32-.107 0-.16-.027-.16-.08 0-.053-.08-.08-.24-.08-.107 0-.64.347-1.6 1.04-1.12.8-1.867 1.307-2.24 1.52-1.28.533-2.24.907-2.88 1.12-1.12.427-1.627.64-1.52.64-.8 0-1.387-.053-1.76-.16l-6.56 3.76c-.053 0-.12-.027-.2-.08-.08-.053-.147-.08-.2-.08.16-.48.56-.88 1.2-1.2.853-.373 1.44-.693 1.76-.96l-6.32 2.88c-.213 0-.467.027-.76.08-.293.053-.493.08-.6.08-.373 0-.88-.16-1.52-.48-.853-.427-1.28-.96-1.28-1.6 0-.107.053-.507.16-1.2.107-.693.16-1.173.16-1.44 1.387-.587 2.187-.88 2.4-.88-.48-.16-.827-.267-1.04-.32.373-.267.827-.64 1.36-1.12.533-.48.96-.827 1.28-1.04l.56.48c.267-.32.453-.533.56-.64-.373.213-.72.24-1.04.08l3.6-2.64c-2.4 1.44-3.867 2.16-4.4 2.16-.16 0-.293-.027-.4-.08v-.72c-2.025.84-2.998 1.29-2.92 1.353l.013.005-.058-.005c-.13-.021-.207-.097-.228-.228l-.007-.085c0-1.333.24-3.093.72-5.28.533-1.547 1.013-2.72 1.44-3.52-1.44 1.92-2.32 4.16-2.64 6.72-.053 0-.187-.107-.4-.32.32-1.653.653-3.32 1-5 .347-1.68.92-3.16 1.72-4.44l-.24-.72c-.587.533-1.067 1.28-1.44 2.24-.533 1.547-.853 2.4-.96 2.56-.693 1.387-1.067 2.16-1.12 2.32-.16 1.547-.267 2.693-.32 3.44-.267 1.333-.48 2.347-.64 3.04 0 .373-.107.64-.32.8-.213-.373-.24-.907-.08-1.6.107-1.6.213-3.173.32-4.72.16-2.24.72-3.973 1.68-5.2l.32.32c0-.107.04-.28.12-.52.08-.24.093-.413.04-.52 1.28-2.133 2.267-3.787 2.96-4.96.187-.32.327-.533.42-.64l.024-.025-.047-.033c-.015-.012-.029-.027-.042-.044l-.035-.058c.48-1.067.853-1.867 1.12-2.4l-.48.48-.24-.32c.16-.373.267-.64.32-.8h-.32c-1.867 3.413-3.147 6.027-3.84 7.84-.107.213-.213.32-.32.32-.107-.107-.16-.187-.16-.24.64-1.227 1.36-2.987 2.16-5.28-1.173 1.493-1.973 2.64-2.4 3.44l-.08-.72c.853-1.12 1.28-1.76 1.28-1.92.32-1.12.533-1.76.64-1.92h-.24c-.107.053-.24.08-.4.08-.213 0-.32-.213-.32-.64-.32.32-.533.48-.64.48l-.16-.56c.587-.587 1.013-1.04 1.28-1.36.053.053.147.107.28.16.133.053.227.107.28.16-.16-.16-.267-.24-.32-.24 0-.16.08-.307.24-.44.16-.133.267-.253.32-.36v-1.76c-1.333-.267-2.293-.427-2.88-.48v-.16c.107-.16.293-.24.56-.24-.053 0-.133-.04-.24-.12-.107-.08-.267-.12-.48-.12-.107 0-.227.067-.36.2-.133.133-.253.2-.36.2-.373 0-.987-.08-1.84-.24-.107 0-.293-.107-.56-.32-.267-.213-.453-.32-.56-.32-.107 0-.253.053-.44.16-.187.107-.36.16-.52.16-.107 0-.267-.027-.48-.08-.213-.053-.4-.08-.56-.08-.107 0-.32.053-.64.16-.32.107-.56.16-.72.16-.107 0-.32-.107-.64-.32-.32-.213-.56-.32-.72-.32l.032.003zM435.24 80.28l.16-.16-.32-.32-.16.16.32.32zm-11.76 60.96c.48-1.173.773-1.813.88-1.92.107 0 .24.053.4.16.16.107.293.16.4.16-.107-1.653.64-2.773 2.24-3.36.32.267.507.4.56.4.107-.533.293-.933.56-1.2l-.04.045-.009.023c-.016.06-.026.16-.03.3l-.001.112c.427-.427.693-.667.8-.72 3.2-1.387 5.147-2.08 5.84-2.08.107 0 .187.08.24.24l9.28-4.72c.107.107.133.187.08.24-.64.48-1.12.827-1.44 1.04 1.387-.427 1.893-.64 1.52-.64h.28c-.027 0-.04.027-.04.08-.16.267-.267.48-.32.64.693-.533 1.227-.907 1.6-1.12.587-.373 1.227-1.04 1.92-2 .533-.96.933-1.627 1.2-2 .267-.373.533-1.12.8-2.24.267-.96.4-1.68.4-2.16 0-1.973-.613-3.973-1.84-6-1.44-2.293-3.253-3.813-5.44-4.56-.96-.373-2.347-.587-4.16-.64-1.387-.053-2.4-.053-3.04 0 .8-2.507 1.307-4.213 1.52-5.12.053-.107.107-.133.16-.08v.72c.32-.587.587-1.013.8-1.28 0-.533-.027-.907-.08-1.12.267-.8.48-1.387.64-1.76.107 0 .213.053.32.16.373-1.44.64-2.533.8-3.28.16.32.24.533.24.64 1.227-3.573 1.467-7.413.72-11.52-.107-.693-.107-1.227 0-1.6.16-.587.56-.88 1.2-.88-.32-.853-.64-1.28-.96-1.28-.48 0-.827.24-1.04.72-.32 1.12-.507 2.027-.56 2.72h-.08c-.32-1.067-.533-1.867-.64-2.4-.16.32-.267.613-.32.88-.16-.533-.267-.933-.32-1.2 0 .533-.107 1.04-.32 1.52-.107-.053-.32-.2-.64-.44s-.56-.387-.72-.44l.48.48c-.213.427-.48.693-.8.8-.053-.693-.053-1.173 0-1.44-.053.053-.12.187-.2.4-.08.213-.173.373-.28.48-.16-.107-.453-.16-.88-.16v-.48c-.053.267-.133.427-.24.48-.32-.533-.48-.827-.48-.88-.533.48-.933.88-1.2 1.2-.427.747-.72 1.28-.88 1.6 0-.587.08-1.627.24-3.12-.267.533-.453.893-.56 1.08-.107.187-.16.36-.16.52.427 1.067.347 2.027-.24 2.88-.267-.587-.453-1.04-.56-1.36v1.12c.053 1.173.08 2.267.08 3.28-.213 3.36-.853 7.6-1.92 12.72-.373 1.76-1.2 5.44-2.48 11.04-.96 4-2.027 7.893-3.2 11.68.16-.373.32-.613.48-.72v.16c-.853 2.613-1.467 4.413-1.84 5.4-.373.987-.747 2.067-1.12 3.24-.32.907-.533 1.36-.64 1.36-.853.267-1.547.453-2.08.56v1.12c.267 0 .52-.027.76-.08.24-.053.387-.08.44-.08.373 0 .72.187 1.04.56-.267.373-.347.827-.24 1.36.107.427.187.827.24 1.2.373-.853.613-1.493.72-1.92.053-.107.16-.16.32-.16.053.213.053.72 0 1.52.48-.693.747-1.04.8-1.04.107.107.16.267.16.48 0-.213.053-.373.16-.48.16.107.293.24.4.4-.053.693-.053 1.28 0 1.76h.32zm10.32-56.88l-.16-.64h-.24l.16.64h.24zm-1.92.16v-.72h-.24v.72h.24zm-1.92 2.24c.053-.693.133-1.12.24-1.28-.053 0-.107.027-.16.08h-.32c-.053 0-.187-.08-.4-.24.267.64.48 1.12.64 1.44zm12.4 4.16v-3.68h-.24v3.68h.24zm-.08 1.44v-.96h-.32v.96h.32zm-2.88 10.08v-.56h-.24v.56h.24zm-1.76 3.84v-.56h-.24v.56h.24zm-.32 1.04l.16-.8h-.24l-.16.8h.24zm11.6 3.92c.48 0 .64-.24.48-.72.053-.053.133-.2.24-.44.107-.24.24-.6.4-1.08.16.213.267.32.32.32.32 0 .56-.08.72-.24.16-.16.24-.4.24-.72 0-.267-.133-.547-.4-.84-.267-.293-.533-.44-.8-.44-.053 0-.12.027-.2.08-.08.053-.147.08-.2.08-.053 0-.2-.08-.44-.24-.24-.16-.387-.24-.44-.24-.213 0-.613.16-1.2.48-.107.107-.32.293-.64.56-.053 0-.08-.027-.08-.08 0-.48-.187-.72-.56-.72-.16 0-.347.133-.56.4v.8l.24.24h.48c-.16 0-.08-.107.24-.32.427.16.533.427.32.8-.267.533-.293.96-.08 1.28.213.16.507.427.88.8.747.16 1.093.24 1.04.24zm-13.36-2.72h-.24v-.72h.24v.72zm-.16.56h-.24v-.48h.24v.48zm.24.48l-.24-.08.24-.48.24.08-.24.48zm12.24 12.16c.053-.907-.133-1.893-.56-2.96-.587-1.6-1.653-3.013-3.2-4.24.427.107.973.493 1.64 1.16.667.667 1.027 1.213 1.08 1.64.107-.107.16-.267.16-.48.747 1.227 1.12 2.267 1.12 3.12 0 .533-.08 1.12-.24 1.76zm-17.84 10.64c.373-.587.667-1.04.88-1.36h-.56c.16-.213.32-.48.48-.8.16-.32.213-.587.16-.8-.133 0-.233.027-.3.08l-.042.043.04-.159c.044-.195.082-.417.113-.666l.029-.258.16-.16c.533-.267.827-.547.88-.84.053-.293.08-.387.08-.28.053-.053.027-.133-.08-.24-.267.48-.507.88-.72 1.2 0-.107.133-.48.4-1.12.267-.64.32-1.12.16-1.44l-.027.007.114-.33c.822-2.38 1.457-4.263 1.906-5.647l.087-.27 1.6-.32c-.64-.267-1.147-.4-1.52-.4.213-.373.773-.56 1.68-.56 2.347 0 3.653.373 3.92 1.12h-.56l.139.142c.44.463.661.816.661 1.058.107-.16.16-.48.16-.96.427 1.013.64 1.84.64 2.48l.4-1.2c.267.747.4 1.307.4 1.68 0-.213-.133 0-.4.64-.16.853-.827 1.707-2 2.56-.907.587-1.787 1.2-2.64 1.84l1.52-.4c-2.933 1.653-5.173 2.933-6.72 3.84.16.107.507.053 1.04-.16-.32.213-.613.427-.88.64.213.107.587-.027 1.12-.4-.8.693-1.573 1.173-2.32 1.44zm3.12-13.44h-.56c0-.16.24-.347.72-.56-.107.107-.16.293-.16.56zm.8 1.68c.16-.373.373-.56.64-.56-.107-.107-.16-.293-.16-.56-.213.267-.373.64-.48 1.12zm-3.04 5.28l-.32-.24c.693-2.56 1.253-4.48 1.68-5.76.213-.16.4-.267.56-.32l-1.92 6.32zm1.52-.32l.48-.8-.24-.08-.48.8.24.08zm-2.48 2.56c-.267-.32-.267-.48 0-.48.107-.8.32-1.333.64-1.6 0 .373-.213 1.067-.64 2.08zm16.16-.4l-.08-.16 1.36-1.44.16.16-1.44 1.44zM429.56 129l-.24-.08.4-.8h.24l-.4.88zm13.84 1.68l.72-.32-.08-.24-.64.32v.24zm-12.64.16l.32-.4-.08-.16-.4.4.16.16zm38.08-50.56l.16-.16-.32-.32-.16.16.32.32zm-11.76 60.96c.48-1.173.773-1.813.88-1.92.107 0 .24.053.4.16.16.107.293.16.4.16-.107-1.653.64-2.773 2.24-3.36.32.267.507.4.56.4.107-.533.293-.933.56-1.2l-.04.045-.009.023c-.016.06-.026.16-.03.3l-.001.112c.427-.427.693-.667.8-.72 3.2-1.387 5.147-2.08 5.84-2.08.107 0 .187.08.24.24l9.28-4.72c.107.107.133.187.08.24-.64.48-1.12.827-1.44 1.04 1.387-.427 1.893-.64 1.52-.64h.28c-.027 0-.04.027-.04.08-.16.267-.267.48-.32.64.693-.533 1.227-.907 1.6-1.12.587-.373 1.227-1.04 1.92-2 .533-.96.933-1.627 1.2-2 .267-.373.533-1.12.8-2.24.267-.96.4-1.68.4-2.16 0-1.973-.613-3.973-1.84-6-1.44-2.293-3.253-3.813-5.44-4.56-.96-.373-2.347-.587-4.16-.64-1.387-.053-2.4-.053-3.04 0 .8-2.507 1.307-4.213 1.52-5.12.053-.107.107-.133.16-.08v.72c.32-.587.587-1.013.8-1.28 0-.533-.027-.907-.08-1.12.267-.8.48-1.387.64-1.76.107 0 .213.053.32.16.373-1.44.64-2.533.8-3.28.16.32.24.533.24.64 1.227-3.573 1.467-7.413.72-11.52-.107-.693-.107-1.227 0-1.6.16-.587.56-.88 1.2-.88-.32-.853-.64-1.28-.96-1.28-.48 0-.827.24-1.04.72-.32 1.12-.507 2.027-.56 2.72h-.08c-.32-1.067-.533-1.867-.64-2.4-.16.32-.267.613-.32.88-.16-.533-.267-.933-.32-1.2 0 .533-.107 1.04-.32 1.52-.107-.053-.32-.2-.64-.44s-.56-.387-.72-.44l.48.48c-.213.427-.48.693-.8.8-.053-.693-.053-1.173 0-1.44-.053.053-.12.187-.2.4-.08.213-.173.373-.28.48-.16-.107-.453-.16-.88-.16v-.48c-.053.267-.133.427-.24.48-.32-.533-.48-.827-.48-.88-.533.48-.933.88-1.2 1.2-.427.747-.72 1.28-.88 1.6 0-.587.08-1.627.24-3.12-.267.533-.453.893-.56 1.08-.107.187-.16.36-.16.52.427 1.067.347 2.027-.24 2.88-.267-.587-.453-1.04-.56-1.36v1.12c.053 1.173.08 2.267.08 3.28-.213 3.36-.853 7.6-1.92 12.72-.373 1.76-1.2 5.44-2.48 11.04-.96 4-2.027 7.893-3.2 11.68.16-.373.32-.613.48-.72v.16c-.853 2.613-1.467 4.413-1.84 5.4-.373.987-.747 2.067-1.12 3.24-.32.907-.533 1.36-.64 1.36-.853.267-1.547.453-2.08.56v1.12c.267 0 .52-.027.76-.08.24-.053.387-.08.44-.08.373 0 .72.187 1.04.56-.267.373-.347.827-.24 1.36.107.427.187.827.24 1.2.373-.853.613-1.493.72-1.92.053-.107.16-.16.32-.16.053.213.053.72 0 1.52.48-.693.747-1.04.8-1.04.107.107.16.267.16.48 0-.213.053-.373.16-.48.16.107.293.24.4.4-.053.693-.053 1.28 0 1.76h.32zm10.32-56.88l-.16-.64H467l.16.64h.24zm-1.92.16v-.72h-.24v.72h.24zm-1.92 2.24c.053-.693.133-1.12.24-1.28-.053 0-.107.027-.16.08h-.32c-.053 0-.187-.08-.4-.24.267.64.48 1.12.64 1.44zm12.4 4.16v-3.68h-.24v3.68h.24zm-.08 1.44v-.96h-.32v.96h.32zM473 102.44v-.56h-.24v.56h.24zm-1.76 3.84v-.56H471v.56h.24zm-.32 1.04l.16-.8h-.24l-.16.8h.24zm11.6 3.92c.48 0 .64-.24.48-.72.053-.053.133-.2.24-.44.107-.24.24-.6.4-1.08.16.213.267.32.32.32.32 0 .56-.08.72-.24.16-.16.24-.4.24-.72 0-.267-.133-.547-.4-.84-.267-.293-.533-.44-.8-.44-.053 0-.12.027-.2.08-.08.053-.147.08-.2.08-.053 0-.2-.08-.44-.24-.24-.16-.387-.24-.44-.24-.213 0-.613.16-1.2.48-.107.107-.32.293-.64.56-.053 0-.08-.027-.08-.08 0-.48-.187-.72-.56-.72-.16 0-.347.133-.56.4v.8l.24.24h.48c-.16 0-.08-.107.24-.32.427.16.533.427.32.8-.267.533-.293.96-.08 1.28.213.16.507.427.88.8.747.16 1.093.24 1.04.24zm-13.36-2.72h-.24v-.72h.24v.72zm-.16.56h-.24v-.48h.24v.48zm.24.48l-.24-.08.24-.48.24.08-.24.48zm12.24 12.16c.053-.907-.133-1.893-.56-2.96-.587-1.6-1.653-3.013-3.2-4.24.427.107.973.493 1.64 1.16.667.667 1.027 1.213 1.08 1.64.107-.107.16-.267.16-.48.747 1.227 1.12 2.267 1.12 3.12 0 .533-.08 1.12-.24 1.76zm-17.84 10.64c.373-.587.667-1.04.88-1.36h-.56c.16-.213.32-.48.48-.8.16-.32.213-.587.16-.8-.133 0-.233.027-.3.08l-.042.043.04-.159c.044-.195.082-.417.113-.666l.029-.258.16-.16c.533-.267.827-.547.88-.84.053-.293.08-.387.08-.28.053-.053.027-.133-.08-.24-.267.48-.507.88-.72 1.2 0-.107.133-.48.4-1.12.267-.64.32-1.12.16-1.44l-.027.007.114-.33c.822-2.38 1.457-4.263 1.906-5.647l.087-.27 1.6-.32c-.64-.267-1.147-.4-1.52-.4.213-.373.773-.56 1.68-.56 2.347 0 3.653.373 3.92 1.12h-.56l.139.142c.44.463.661.816.661 1.058.107-.16.16-.48.16-.96.427 1.013.64 1.84.64 2.48l.4-1.2c.267.747.4 1.307.4 1.68 0-.213-.133 0-.4.64-.16.853-.827 1.707-2 2.56-.907.587-1.787 1.2-2.64 1.84l1.52-.4c-2.933 1.653-5.173 2.933-6.72 3.84.16.107.507.053 1.04-.16-.32.213-.613.427-.88.64.213.107.587-.027 1.12-.4-.8.693-1.573 1.173-2.32 1.44zm3.12-13.44h-.56c0-.16.24-.347.72-.56-.107.107-.16.293-.16.56zm.8 1.68c.16-.373.373-.56.64-.56-.107-.107-.16-.293-.16-.56-.213.267-.373.64-.48 1.12zm-3.04 5.28l-.32-.24c.693-2.56 1.253-4.48 1.68-5.76.213-.16.4-.267.56-.32l-1.92 6.32zm1.52-.32l.48-.8-.24-.08-.48.8.24.08zm-2.48 2.56c-.267-.32-.267-.48 0-.48.107-.8.32-1.333.64-1.6 0 .373-.213 1.067-.64 2.08zm16.16-.4l-.08-.16 1.36-1.44.16.16-1.44 1.44zM463.16 129l-.24-.08.4-.8h.24l-.4.88zm13.84 1.68l.72-.32-.08-.24-.64.32v.24zm-12.64.16l.32-.4-.08-.16-.4.4.16.16zm34.56 6.96c.053 0 .187-.08.4-.24.427-.053.773-.027 1.04.08-.213-.64-.107-.96.32-.96.107 0 .24.027.4.08h.24c-.213-.053-.24-.24-.08-.56.373 0 .72-.08 1.04-.24-.213-.213-.24-.4-.08-.56l-.32.24v-.16c.907-.853 1.627-1.493 2.16-1.92.587-.64 1.013-1.12 1.28-1.44.587-.747 1.04-1.333 1.36-1.76 0-.213.027-.373.08-.48 1.173-1.227 1.867-1.947 2.08-2.16-.267-.053-.4-.16-.4-.32 0-.213.4-.64 1.2-1.28-.533.16-.907.24-1.12.24-.427 0-.64-.187-.64-.56 0-.213.24-.533.72-.96-.587.267-.907.4-.96.4-.213 0-.347-.053-.4-.16-4.693 4.107-7.147 6.16-7.36 6.16-.213 0-.293-.027-.24-.08l.48-.48c-.213.16-.347.213-.4.16l3.84-3.76c-2.133 1.76-3.307 2.72-3.52 2.88.96-.907 1.947-1.787 2.96-2.64 1.173-1.173 1.92-2.213 2.24-3.12l-6.08 4.88c-.107 0-.187-.027-.24-.08-.267-1.6-.4-3.253-.4-4.96 0-2.187.213-4.827.64-7.92l.8-5.52.4-4.96c.053.053.08.133.08.24 0-.267.187-.533.56-.8-.107-.107-.16-.187-.16-.24-.16 0-.32.08-.48.24l-.08-.64h.32c.32 0 .347-.4.08-1.2-.267.16-.453.24-.56.24l-.24-.16v-.48c0-.373.213-.933.64-1.68-.213.16-.4.293-.56.4-.373.48-.613.72-.72.72-.053 0-.133-.053-.24-.16v-.16c.053-.107.08-.187.08-.24h-.48c-.427 0-1.04.32-1.84.96-.533-.693-.933-1.2-1.2-1.52-.427.427-.667.64-.72.64-.427.267-.747.453-.96.56-.693.907-1.12 1.733-1.28 2.48-.587 2.24-1.2 5.52-1.84 9.84-.64 4.747-.96 8.4-.96 10.96 0 3.253.747 6.32 2.24 9.2.427.907.96 1.36 1.6 1.36.107 0 .107.053 0 .16-.053.053-.027.08.08.08.16 0 .533-.053 1.12-.16.213 0 .373-.107.48-.32.267.213.427.373.48.48 0-.213.08-.32.24-.32.16 0 .267.08.32.24.427.533.8.907 1.12 1.12.16 0 .413.053.76.16.347.107.573.16.68.16zm-4.56-4.48l.08-.32h.72c-.32.16-.587.267-.8.32zm.4.56h-.88v-.24h.88v.24zm1.92 5.52v-.24l-1.52-.16v.24l1.52.16zm-8.768-49.433l.1-.296c.184-.496.433-.986.748-1.471.8-1.28 1.76-2.053 2.88-2.32.213-.16.347-.24.4-.24.267 0 .48.08.64.24-.907.427-1.92.96-3.04 1.6-1.227 2.667-1.947 4.56-2.16 5.68.107.48.08.96-.08 1.44-.16.213-.24.293-.24.24 0 1.813.293 2.72.88 2.72.053 0 .173-.067.36-.2s.307-.2.36-.2c.107 0 .16.027.16.08 0 .053.027.08.08.08.32 0 .613-.147.88-.44.267-.293.427-.44.48-.44.053 0 .16.08.32.24 0 .16-.16.4-.48.72.32-.107.56-.04.72.2.16.24.267.467.32.68.213-.107.56-.16 1.04-.16.107 0 .267.173.48.52.213.347.427.573.64.68-.267-.267-.293-.453-.08-.56.16 0 .24.053.24.16v-.8h.56c0 .16-.133.48-.4.96l1.28-.8c.213 0 .56.187 1.04.56.107-.107.16-.187.16-.24 0-.107-.08-.213-.24-.32-.16-.107-.24-.213-.24-.32 1.44-1.28 2.453-2.24 3.04-2.88.26-.997.414-1.606.463-1.828l.002-.012-.005.02c-.007.02-.015.042-.025.065l-.035.075c-.32-.213-.533-.373-.64-.48-.107-.48.027-.907.4-1.28 0-.267-.027-.453-.08-.56.053-.053.133-.08.24-.08.213.907.32 1.547.32 1.92.373-.96.427-1.653.16-2.08.053-.053.107-.08.16-.08.267.213.453.373.56.48v-.4c-.48-.373-.88-.56-1.2-.56-.053-.587-.027-1.013.08-1.28-.213 0-.32-.053-.32-.16l.96-.64c-.053-.053-.12-.133-.2-.24-.08-.107-.12-.187-.12-.24.16-.16.16-.293 0-.4-.213.053-.613.08-1.2.08-.107 0-.147-.04-.12-.12.027-.08-.013-.12-.12-.12-.267 0-.4-.133-.4-.4-.107 0-.24.04-.4.12-.16.08-.293.12-.4.12-.107 0-.213-.067-.32-.2l-.064-.072c-.085-.085-.17-.128-.256-.128-.053 0-.093.027-.12.08-.027.053-.093.08-.2.08-.053 0-.133-.053-.24-.16-.16-.053-.373-.053-.64 0-.373-.48-.56-.773-.56-.88-.48-.053-1.307-.2-2.48-.44s-1.787-.36-1.84-.36c-.267 0-.64.187-1.12.56.32.64.48 1.12.48 1.44 0 .107-.32.427-.96.96-.8.747-1.307 1.253-1.52 1.52-.907 1.013-1.36 2.373-1.36 4.08l.16.64c.32-.16.533-.16.64 0-.107-.32-.213-.56-.32-.72-.213-1.653.427-3.173 1.92-4.56-.036.373-.074.72-.116 1.04l-.012.087zM515.08 87.8c-.107 0 .64-.187 2.24-.56.8-.747 1.413-1.307 1.84-1.68.48-.587.427-1.44-.16-2.56-.107-.213-.08-.507.08-.88s.373-.613.64-.72c.107.053.2.16.28.32.08.16.173.24.28.24h.96c.053 0 .213-.133.48-.4v-1.6c-.373-.587-.747-.88-1.12-.88-.213 0-.453.16-.72.48-.267.32-.427.6-.48.84-.053.24-.107.36-.16.36-.693-.533-1.173-.933-1.44-1.2-1.227-.693-2.053-1.04-2.48-1.04-.107 0-.427.16-.96.48-.533.32-.853.48-.96.48-.107 0-.253-.04-.44-.12-.187-.08-.333-.12-.44-.12-.533 0-1.093.307-1.68.92s-.88 1.213-.88 1.8.187 1.04.56 1.36c.373.32.853.48 1.44.48.213 0 .48-.187.8-.56.267.96.453 1.68.56 2.16.373.427.64.747.8.96-.107.32-.053.64.16.96.213.32.48.48.8.48zm28.72-7.2c.32 0 .693-.187 1.12-.56v-.64l-.24-.16c-.693.427-1.04.667-1.04.72v.48l.16.16zm-9.84 2.48c.693-.533 1.04-1.067 1.04-1.6 0-.267-.053-.453-.16-.56-.213.053-.467.307-.76.76s-.44.76-.44.92c0 .107.107.267.32.48zm-13.679 10.952L521.88 85c-.373-.48-.613-.747-.72-.8l-.879 9.832zM506.76 90.04c.267-.107.533-.16.8-.16 0-.053.027-.16.08-.32.053-.16.08-.293.08-.4v-.72c-.427-.053-.747-.053-.96 0 0 .107-.053.307-.16.6-.107.293-.16.493-.16.6 0 .053.107.187.32.4zm8.64-.08v-.24l-1.44-.24v.16l1.44.32zm15.28 3.12l.08-1.36h-.24l-.16 1.36h.32zm-14.24 1.04c.48 0 .72-.267.72-.8 0-.8-.587-1.2-1.76-1.2-.373 0-.667.32-.88.96.373.693 1.013 1.04 1.92 1.04zm-5.76 12.24c-.213 0-.453-.107-.72-.32-.213.213-.347.32-.4.32h1.12zm3.68 22.88c.107 0 .187-.027.24-.08l.12-.12c.027-.027.067-.107.12-.24.053-.133.08-.28.08-.44-.267-1.547-.693-2.32-1.28-2.32-.107 0-.293.107-.56.32-.32.373-.507.587-.56.64-.213-.16-.373-.24-.48-.24 0 .053.053.24.16.56.427.267.667.48.72.64.053.16.08.293.08.4.8.587 1.253.88 1.36.88zm14.009-9.682c.03.526.133 1.033.311 1.522.16.213.373.32.64.32.053-.907-.013-2.267-.2-4.08-.187-1.813-.28-3.093-.28-3.84-.295 3.93-.454 5.869-.477 5.817l-.002-.006.008.267zm17.244-25.682c-.262.056-1.32.084-3.173.084-.16 0-.32-.08-.48-.24.853-.48 1.867-.72 3.04-.72.16 0 .493-.16 1-.48.507-.32.84-.507 1-.56-2.4.427-3.627.64-3.68.64-2.229.594-3.261.913-3.099.955l.015.003-.018-.001c-.093-.011-.13-.05-.114-.115l.016-.042c.053-.107.027-.16-.08-.16s-.453.093-1.04.28c-.587.187-.933.28-1.04.28-.32 0-.56-.08-.72-.24l.24-.16h1.2c.48 0 .827-.32 1.04-.96-.213 0-1.387.213-3.52.64-1.493.213-2.693.373-3.6.48-.16.053-.467.133-.92.24-.453.107-.733.16-.84.16-.213 0-.32-.107-.32-.32-.16.213-.293.32-.4.32-.053-.053-.093-.12-.12-.2-.027-.08-.067-.147-.12-.2.32-2.72.533-4.773.64-6.16h.24v-.8c-.053.373-.187-.213-.4-1.76-.213-1.12-.4-1.893-.56-2.32-.373-.32-.6-.653-.68-1-.08-.347-.147-.653-.2-.92l-.4-.08c-.32 1.173-.533 2.027-.64 2.56-.587-.96-.907-1.547-.96-1.76-.48.587-.853 1.04-1.12 1.36-.16-.16-.28-.24-.36-.24-.08 0-.76-.32-2.04-.96-.107.427-.32.933-.64 1.52-.107.427-.16.747-.16.96-.267.96-.453 1.653-.56 2.08v.88c-.267.853-.4 1.413-.4 1.68v1.12c-.213 1.44-.347 2.533-.4 3.28-.107.907-.32 1.76-.64 2.56-1.973.587-3.44.987-4.4 1.2-.693.267-1.2.507-1.52.72 0 .533-.187.88-.56 1.04-.107-.16-.32-.24-.64-.24.16 0 .213.08.16.24-.64.48-1.093.827-1.36 1.04l.24.24c-.907.373-1.6.613-2.08.72.32.267.693.4 1.12.4.267-.053.4.16.4.64 0 .373-.2.6-.6.68-.4.08-.76.147-1.08.2-.373.48-.72.96-1.04 1.44.16.16.213.267.16.32-.213 0-.32.08-.32.24.8-.267 1.28-.4 1.44-.4.267 0 1.28.64 3.04 1.92-.587.16-1.013.267-1.28.32.48.16.773.267.88.32.107.053.187.107.24.16l-.24.24c-.427 0-.867-.027-1.32-.08-.453-.053-.707-.08-.76-.08-.373 0-.8.133-1.28.4-.107.267-.16.453-.16.56.427 0 .96-.027 1.6-.08h.96c.64 0 1.387.107 2.24.32.853.213 1.44.32 1.76.32.64 0 1.6-.187 2.88-.56-.48 5.28-.72 8.267-.72 8.96 0 2.453.213 5.04.64 7.76.533 3.253 1.227 5.36 2.08 6.32 2.347 2.613 3.813 3.92 4.4 3.92h.96l-.007-.114c0-.37.242-.652.727-.846.053.107.48.427 1.28.96.8.533 1.307.8 1.52.8.107 0 .52-.173 1.24-.52.72-.347 1.907-1.32 3.56-2.92.853-.853 2.053-2.107 3.6-3.76-.053.053-1.2.987-3.44 2.8-1.493 1.28-2.773 2.027-3.84 2.24l-.24-.24c0-.107.107-.213.32-.32 3.84-2.24 7.013-5.253 9.52-9.04-2.773 1.973-4.32 3.12-4.64 3.44-.267-.267-.427-.4-.48-.4-.107 0-.16.027-.16.08 0 .053-.053.08-.16.08-.267 0-.653-.24-1.16-.72-.507-.48-.893-.72-1.16-.72-.107 0-.64.453-1.6 1.36-.96.907-1.6 1.493-1.92 1.76-1.973-2.88-2.96-6.987-2.96-12.32 0-1.653.187-3.467.56-5.44.533-3.2.84-4.853.92-4.96l.12-.16c5.493-1.173 10.773-2.507 15.84-4 1.653-.427 2.907-.747 3.76-.96.107-.053.2-.147.28-.28.08-.133.147-.2.2-.2l-.4-.16c-2.507.533-3.773.8-3.8.8-.027 0-.493.133-1.4.4-.107.053-.187.027-.24-.08.96-.373 1.68-.693 2.16-.96 1.12-.373 1.973-.64 2.56-.8-1.013.107-1.947.107-2.8 0 .213-.267.48-.4.8-.4 1.76-.373 3.12-.693 4.08-.96.16-.267.24-.427.24-.48-.48-.213-.72-.427-.72-.64l1.44-.96v-.48l-.16-.16c-1.12.267-1.867.4-2.24.4.16 0 .027-.053-.4-.16-.107-.16-.16-.32-.16-.48-.775-.693-1.254-1.137-1.436-1.331l-.031-.033z"/>
    </g>
</svg>
