<svg xmlns="http://www.w3.org/2000/svg" xmlns:xlink="http://www.w3.org/1999/xlink" width="139" height="187" viewBox="0 0 139 187">
    <defs>
        <path id="r74oidikra" d="M1.196 0.46L93.475 0.46 93.475 165.149 1.196 165.149z"/>
    </defs>
    <g fill="none" fill-rule="evenodd">
        <g transform="translate(2) translate(11.188 .938)">
            <mask id="1wgid9wmtb" fill="#fff">
                <use xlink:href="#r74oidikra"/>
            </mask>
            <path fill="#000" d="M49.646 116.319c2.326 0 2.323-3.516 0-3.516-2.325 0-2.321 3.516 0 3.516m-6.663-.919c0-7.707 11.652-7.699 11.652 0 0 7.706-11.652 7.697-11.652 0m38.306-.38c1.377-.157.986-3.484-.38-3.327-1.38.158-.986 3.483.38 3.327m1.105-7c5.15 0 5.145 10.296 0 10.296-5.151 0-5.145-10.296 0-10.296m-54.167 47.93c-6.213-11.872-4.314-22.789-3.201-26.915-5.313-1.261-12.508-3.608-16.395-7.494.142 14.564 7.973 27.292 19.596 34.409M9.153 114.863c-1.295 6.14 15.227 13.642 40.309 13.642 23.81 0 40.404-6.796 40.404-12.896 0-9.5-11.913-33.404-37.557-35.175-1.225-.084-1.9-1.476-1.194-2.494 6.299-9.054 26.362-40.403 27.05-72.733-36.414 27.822-42.24 68.718-43.046 76.79-.059.585-.436 1.09-.983 1.313-2.056.835-3.952 1.77-5.636 2.78-1.067.648-2.457-.153-2.406-1.427.536-12.896.157-44.747-14.152-68.84-15.914 39.535-2.515 73.932 2.068 83.703.218.466.197 1.01-.057 1.46-3.855 6.776-4.343 11.679-4.8 13.877m84.322 6.274c0 24.27-19.744 44.012-44.012 44.012-33.207 0-54.611-35.764-38.674-65.016-5.125-11.241-18.432-47.41-.582-88.396.234-.535.743-.9 1.325-.946.589-.054 1.144.225 1.463.715C27.965 34.44 29.809 64.457 29.363 81.99c.864-.438 1.763-.857 2.696-1.256 1.192-10.4 8.296-52.294 46.773-79.976.477-.345 1.109-.394 1.639-.131.527.267.865.801.877 1.393.588 32.081-18.207 63.689-26.112 75.517 21.071 2.796 38.24 20.96 38.24 43.6" mask="url(#1wgid9wmtb)"/>
        </g>
        <path stroke="#000" stroke-linecap="round" stroke-linejoin="round" stroke-width="2" d="M96.003 165.727l9.482 12.137c.873 1.116 2.486 1.314 3.602.441 30.114-23.528 35.473-67.167 11.945-97.279-.873-1.117-2.487-1.316-3.603-.443l-12.136 9.482c-1.117.872-1.314 2.486-.442 3.603 4.589 5.873 7.681 12.467 9.191 19.593.142.673.544 1.256 1.114 1.625.576.372 1.27.501 1.94.356l9.066-1.951c1.842 11.813.348 23.942-4.292 34.962l-8.323-4.096c-.61-.3-1.317-.345-1.966-.124-.645.216-1.182.68-1.477 1.303-3.188 6.55-7.784 12.199-13.659 16.789-1.116.871-1.315 2.486-.442 3.602zM101.365 172.723c-2.119 1.665-7.458-1.445-9.686-.12-2.306 1.373-2.138 7.543-4.533 8.562-2.458 1.046-6.788-3.362-9.308-2.674-2.569.701-4.06 6.69-6.658 7.033-2.632.346-5.63-5.057-8.258-5.062-2.649-.006-5.664 5.383-8.274 5.033-2.622-.35-4.123-6.344-6.67-7.025-2.553-.68-6.84 3.765-9.284 2.767-2.443-.999-2.386-7.176-4.685-8.478-2.295-1.3-7.566 1.924-9.679.338-2.109-1.58-.484-7.538-2.376-9.388-1.88-1.839-7.805-.086-9.437-2.177-1.615-2.069 1.524-7.383.186-9.682-1.314-2.26-7.492-2.157-8.507-4.626-.99-2.408 3.463-6.68 2.786-9.276-.653-2.51-6.636-4.052-6.969-6.724-.319-2.564 5.088-5.545 5.088-8.249" transform="translate(2)"/>
    </g>
</svg>
