<svg xmlns="http://www.w3.org/2000/svg" xmlns:xlink="http://www.w3.org/1999/xlink" width="232" height="300" viewBox="0 0 232 300">
    <defs>
        <path id="prefix__a" d="M0 0.6L168.174 0.6 168.174 297.479 0 297.479z"/>
    </defs>
    <g fill="none" fill-rule="evenodd">
        <g transform="translate(0 1.921)">
            <mask id="prefix__b" fill="#fff">
                <use xlink:href="#prefix__a"/>
            </mask>
            <path fill="#000" d="M88.3 209.454c4.238 0 4.233-6.336 0-6.336-4.239 0-4.231 6.336 0 6.336m-12.145-1.657c0-13.89 21.236-13.878 21.236 0 0 13.894-21.236 13.879-21.236 0m69.812-.683c2.51-.285 1.797-6.28-.693-6-2.513.285-1.797 6.283.693 6m2.014-12.62c9.386 0 9.376 18.56 0 18.56-9.387 0-9.377-18.56 0-18.56m-98.717 86.4c-11.324-21.398-7.863-41.08-5.834-48.514-9.683-2.277-22.796-6.507-29.879-13.513.258 26.256 14.53 49.2 35.713 62.027m-34.762-74.065c-2.36 11.07 27.75 24.595 73.461 24.595 43.395 0 73.635-12.254 73.635-23.251 0-17.123-21.71-60.214-68.445-63.408-2.233-.15-3.464-2.66-2.177-4.493 11.48-16.323 48.043-72.834 49.297-131.112-66.363 50.15-76.979 123.874-78.45 138.423-.106 1.056-.794 1.966-1.79 2.367-3.748 1.508-7.204 3.192-10.272 5.015-1.945 1.167-4.478-.278-4.384-2.574.976-23.247.285-80.663-25.793-124.094-29.002 71.268-4.583 133.27 3.77 150.884.397.842.359 1.823-.107 2.635-7.022 12.212-7.912 21.05-8.745 25.013m153.672 11.31c0 43.75-35.98 79.34-80.208 79.34-60.52 0-99.527-64.469-70.482-117.2-9.341-20.267-33.592-85.468-1.06-159.349.425-.965 1.353-1.62 2.413-1.707 1.073-.098 2.085.406 2.666 1.289 27.282 41.347 30.643 95.453 29.83 127.059 1.575-.79 3.214-1.543 4.914-2.264 2.172-18.75 15.12-94.268 85.242-144.167.869-.622 2.021-.713 2.987-.237.96.48 1.578 1.445 1.598 2.509 1.073 57.834-33.182 114.809-47.587 136.132 38.402 5.04 69.687 37.784 69.687 78.595" mask="url(#prefix__b)"/>
        </g>
        <path fill="#000" d="M227.212 165.007c0 12.033-9.899 21.82-22.064 21.82-7.223 0-14.01-2.782-19.11-7.836l-25.94-25.651c-.69-.679-1.069-1.589-1.069-2.574 0-1.992 1.636-3.613 3.65-3.613 1.239 0 2.472.29 3.583.837l13.932 6.887c.622.308 1.363.275 1.947-.085.591-.36.95-1.001.95-1.687v-49.59c0-2.186 1.8-3.969 4.012-3.969 2.215 0 4.012 1.783 4.012 3.968v37.69c0 1.094.897 1.983 2.006 1.983 1.106 0 2.006-.89 2.006-1.984v-17.85c0-2.189 1.796-3.969 4.009-3.969 2.215 0 4.011 1.78 4.011 3.968v17.851c0 1.095.9 1.984 2.006 1.984 1.106 0 2.006-.89 2.006-1.984v-13.885c0-2.186 1.794-3.966 4.01-3.966 2.214 0 4.01 1.78 4.01 3.966v13.885c0 1.095.898 1.984 2.007 1.984 1.106 0 2.006-.89 2.006-1.984v-9.917c0-2.186 1.796-3.968 4.009-3.968 2.214 0 4.011 1.782 4.011 3.968v33.72zm-4.011-41.655c-1.65 0-3.184.494-4.46 1.339-1.1-3.086-4.079-5.307-7.573-5.307-1.646 0-3.183.497-4.46 1.341-1.099-3.088-4.078-5.309-7.572-5.309-1.458 0-2.832.388-4.01 1.066v-12.968c0-4.376-3.598-7.936-8.023-7.936-4.424 0-8.02 3.56-8.02 7.936v46.382l-11.026-5.456c-1.662-.821-3.523-1.253-5.378-1.253-4.228 0-7.662 3.399-7.662 7.601 0 2.027.798 3.928 2.246 5.36l25.933 25.651c5.862 5.801 13.661 8.995 21.957 8.995 14.375 0 26.071-11.569 26.071-25.787v-33.721c0-4.377-3.599-7.934-8.023-7.934z"/>
    </g>
</svg>
