<svg xmlns="http://www.w3.org/2000/svg" xmlns:xlink="http://www.w3.org/1999/xlink" width="306" height="299" viewBox="0 0 306 299">
    <defs>
        <path id="prefix__a" d="M0 1.279L145.553 1.279 145.553 261.048 0 261.048z"/>
        <path id="prefix__c" d="M1.935 2.056L114.003 2.056 114.003 94.853 1.935 94.853z"/>
        <path id="prefix__e" d="M0 298.721L305.543 298.721 305.543 2.206 0 2.206z"/>
    </defs>
    <g fill="none" fill-rule="evenodd" transform="matrix(-1 0 0 1 306 0)">
        <g transform="translate(0 .926)">
            <mask id="prefix__b" fill="#fff">
                <use xlink:href="#prefix__a"/>
            </mask>
            <path fill="#000" d="M76.423 184.027c3.668 0 3.664-5.545 0-5.545-3.668 0-3.662 5.545 0 5.545m-10.511-1.449c0-12.157 18.38-12.143 18.38 0 0 12.154-18.38 12.141-18.38 0m60.42-.6c2.174-.247 1.554-5.495-.6-5.248-2.174.25-1.556 5.495.6 5.248m1.744-11.04c8.124 0 8.113 16.24 0 16.24-8.127 0-8.115-16.24 0-16.24m-85.438 75.6c-9.801-18.726-6.805-35.945-5.05-42.453-8.38-1.99-19.731-5.69-25.86-11.821.224 22.972 12.577 43.048 30.91 54.274M12.552 181.73c-2.043 9.686 24.017 21.518 63.58 21.518 37.557 0 63.73-10.72 63.73-20.342 0-14.983-18.79-52.688-59.239-55.483-1.932-.132-2.998-2.327-1.884-3.933 9.935-14.28 41.581-63.728 42.666-114.723C63.97 52.652 54.781 117.158 53.508 129.89c-.092.922-.688 1.718-1.55 2.07-3.243 1.318-6.234 2.791-8.89 4.386-1.683 1.021-3.876-.243-3.794-2.252.842-20.34.245-70.58-22.324-108.582-25.1 62.36-3.968 116.614 3.263 132.026.344.735.31 1.595-.093 2.303-6.077 10.687-6.847 18.421-7.568 21.889m133.001 9.896c0 38.28-31.14 69.42-69.419 69.42-52.379 0-86.14-56.41-61.001-102.55-8.085-17.731-29.074-74.782-.918-139.43.368-.843 1.171-1.418 2.089-1.491.929-.086 1.804.355 2.307 1.127 23.612 36.176 26.52 83.521 25.818 111.176 1.363-.69 2.782-1.352 4.253-1.98 1.88-16.406 13.085-82.485 73.776-126.148.752-.545 1.749-.622 2.585-.208.831.422 1.365 1.264 1.383 2.198.929 50.602-28.718 100.458-41.186 119.115 33.236 4.41 60.313 33.06 60.313 68.77" mask="url(#prefix__b)"/>
        </g>
        <g transform="translate(127.941 203.868)">
            <mask id="prefix__d" fill="#fff">
                <use xlink:href="#prefix__c"/>
            </mask>
            <path fill="#000" d="M109.173 71.528c-1.45 1.394-3.735 1.42-5.22.062l-.059-.062-15.08-15.08c-1.15-2.163-3.288-3.624-5.721-3.912 1.356-2.31 1.37-5.171.04-7.496-1.333-2.325-3.806-3.759-6.486-3.757-.009-4.482-2.68-8.53-6.798-10.297 1.696-2.607 2.71-5.598 2.951-8.698l22.489-5.492c2.303-.563 4.696.472 5.863 2.534 1.17 2.06.825 4.648-.84 6.333-.36.353-.766.653-1.207.892l-16.864 9.377c-.512.284-.862.794-.942 1.374-.081.58.115 1.165.53 1.58l27.344 27.363c1.456 1.459 1.456 3.821 0 5.28zm-3.96 11.881c-1.473 1.42-3.807 1.42-5.28 0l-3.98-3.962-12.192-12.2c2.636-.514 4.778-2.438 5.57-5.006l11.91 11.914.013.011.07.073 3.883 3.88c1.453 1.463 1.456 3.823.006 5.29zm-11.898 3.977c-1.487 1.386-3.792 1.386-5.279 0l-5.25-5.25-.042-.04-3.84-3.829c2.565-.785 4.498-2.907 5.042-5.534l9.367 9.368c.708.697 1.11 1.65 1.11 2.643 0 .992-.4 1.945-1.108 2.642zm-13.22 2.647c-1.476 1.403-3.794 1.397-5.263-.013l-1.465-1.467c.39-.262.754-.565 1.09-.898 1.407-1.396 2.195-3.297 2.19-5.28-.002-.402-.037-.803-.106-1.2l3.567 3.569.024.026c.697.7 1.088 1.65 1.08 2.64-.01.987-.411 1.933-1.12 2.621l.003.002zM5.668 65.563c-.008-3.178.722-6.315 2.136-9.165l1.775-2.894c.014-.024.034-.064.056-.106l22.184-33.461c.016-.02.031-.044.042-.068 1.185-1.975 3.518-2.943 5.753-2.385h.077c.366.093.724.223 1.063.39 1.807.89 2.943 2.736 2.928 4.748 0 .491-.07.979-.21 1.449l-5.305 18.567c-.159.564-.046 1.171.307 1.639.353.465.904.74 1.49.74h38.683c2.063 0 3.737 1.673 3.737 3.735 0 2.065-1.674 3.737-3.737 3.737H48.63c-1.032 0-1.868.836-1.868 1.869 0 1.032.836 1.868 1.868 1.868h33.62c2.065 0 3.737 1.672 3.737 3.735 0 2.062-1.672 3.736-3.737 3.736H46.762c-1.033 0-1.869.836-1.869 1.866 0 1.033.836 1.869 1.869 1.869h29.885c2.063 0 3.737 1.672 3.737 3.737 0 2.062-1.674 3.734-3.737 3.734H44.893c-1.03 0-1.866.836-1.866 1.869 0 1.032.836 1.868 1.866 1.868h24.283c2.065 0 3.737 1.672 3.737 3.734 0 2.065-1.672 3.737-3.737 3.737h-42.96c-11.342-.013-20.534-9.205-20.548-20.548zm48.565-59.77c5.912.002 11.266 3.49 13.659 8.894 2.391 5.404 1.374 11.713-2.599 16.09-.467.514-.613 1.246-.375 1.899.24.655.823 1.12 1.514 1.211 3.706.496 6.476 3.655 6.48 7.396H40.44L45.066 25.1c1.182-4.094-.675-8.458-4.448-10.44 2.374-5.4 7.719-8.88 13.615-8.866zm31.985 32.201l14.672-8.155c3.973-2.18 5.71-6.966 4.067-11.188-1.645-4.22-6.165-6.567-10.564-5.484L72.758 18.45C71.721 10.024 65.13 3.355 56.715 2.224c-8.416-1.132-16.536 3.558-19.76 11.413-3.331-.212-6.508 1.427-8.264 4.266L6.394 51.556 4.618 54.45c-.028.044-.092.168-.116.214-3.766 7.533-3.367 16.476 1.056 23.64 4.423 7.165 12.238 11.533 20.658 11.542h42.96c.062 0 .119-.016.187-.016l2.833 2.833c1.394 1.405 3.293 2.192 5.274 2.19 1.98.013 3.884-.774 5.274-2.186.933-.92 1.608-2.073 1.95-3.34l.713.715c2.964 2.788 7.59 2.782 10.548-.013.947-.946 1.622-2.127 1.952-3.421 3.003 2.29 7.222 2.053 9.947-.56 2.669-2.692 2.912-6.954.56-9.927 2.592-.677 4.626-2.69 5.327-5.274.704-2.584-.033-5.348-1.93-7.242l-25.593-25.61z" mask="url(#prefix__d)"/>
        </g>
        <path fill="#000" d="M175.578 219.88c.49-.003.96-.199 1.306-.545 2.172-2.175 5.455-2.8 8.274-1.569.944.413 2.047-.022 2.46-.966.412-.946-.02-2.05-.965-2.462-4.222-1.846-9.143-.913-12.394 2.35-.536.531-.698 1.334-.413 2.031.287.7.966 1.156 1.72 1.16h.012zM212.061 206.858c0 1.549-1.255 2.802-2.804 2.802-1.546 0-2.801-1.253-2.801-2.802 0-1.548 1.255-2.801 2.801-2.801 1.549 0 2.804 1.253 2.804 2.801m-9.34 0c0 3.611 2.927 6.539 6.536 6.539 3.614 0 6.539-2.928 6.539-6.539 0-3.61-2.925-6.538-6.539-6.538-3.609 0-6.536 2.927-6.536 6.538M232.608 207.792c-3.095 0-5.606-2.508-5.606-5.605 0-3.092 2.51-5.603 5.606-5.603 3.092 0 5.603 2.51 5.603 5.603 0 1.487-.592 2.912-1.642 3.964-1.052 1.05-2.475 1.641-3.961 1.641m0-14.942c-5.158 0-9.34 4.182-9.34 9.337 0 5.16 4.182 9.34 9.34 9.34 5.157 0 9.337-4.18 9.337-9.34-.006-5.153-4.182-9.33-9.337-9.337M232.608 243.281c1.032 0 1.868.837 1.868 1.869 0 1.03-.836 1.868-1.868 1.868-1.033 0-1.869-.838-1.869-1.868 0-1.032.836-1.869 1.869-1.869m-5.606 1.869c0 3.095 2.51 5.603 5.606 5.603 3.092 0 5.603-2.508 5.603-5.603 0-3.095-2.51-5.603-5.603-5.603-3.095 0-5.606 2.508-5.606 5.603"/>
        <path stroke="#000" stroke-linecap="round" stroke-linejoin="round" stroke-width="4" d="M267.322 175.516h27.852c4.509 0 8.164 3.655 8.164 8.164v73.767h-44.18V183.68c0-4.509 3.655-8.164 8.164-8.164z"/>
        <mask id="prefix__f" fill="#fff">
            <use xlink:href="#prefix__e"/>
        </mask>
        <path stroke="#000" stroke-linecap="round" stroke-linejoin="round" stroke-width="4" d="M272.804 235.432L303.337 235.432 303.337 196.67 272.804 196.67zM266.925 175.515L294.693 175.515 294.693 164.012 266.925 164.012zM246.039 128.291L270.067 128.291 270.067 139.795 250.804 139.795 240.59 150.008 231.048 143.282z" mask="url(#prefix__f)"/>
        <path stroke="#000" stroke-linecap="round" stroke-linejoin="round" stroke-width="4" d="M274.407 123.29h13.21c2.397 0 4.338 1.941 4.338 4.34v14.732h-21.889V127.63c0-2.398 1.944-4.339 4.341-4.339z" mask="url(#prefix__f)"/>
        <path stroke="#000" stroke-linecap="round" stroke-linejoin="round" stroke-width="4" d="M275.541 164.012L287.045 164.012 287.045 142.361 275.541 142.361zM236.5 172.318c0 2.616-2.122 4.736-4.736 4.736-2.618 0-4.738-2.12-4.738-4.736 0-4.27 4.738-9.46 4.738-9.46s4.736 5.075 4.736 9.46z" mask="url(#prefix__f)"/>
    </g>
</svg>
