<svg xmlns="http://www.w3.org/2000/svg" width="18" height="16" viewBox="0 0 18 16">
    <g fill="none" fill-rule="evenodd">
        <g fill="#000" fill-rule="nonzero">
            <g>
                <path d="M16.692 2.916H3.082L2.879.663c-.033-.37-.342-.651-.712-.651H.715C.32.012 0 .332 0 .726c0 .395.32.715.715.715h.799l.822 9.16c.058.661.415 1.377 1.03 1.864-1.108 1.415-.096 3.501 1.706 3.501 1.496 0 2.551-1.492 2.038-2.905h3.913c-.512 1.411.54 2.905 2.038 2.905 1.195 0 2.167-.972 2.167-2.167 0-1.195-.972-2.168-2.167-2.168H5.077c-.543 0-1.016-.327-1.22-.805l11.425-.671c.311-.018.575-.237.651-.54l1.453-5.81c.112-.45-.229-.889-.694-.889zm-11.62 11.62c-.406 0-.737-.33-.737-.737s.33-.738.737-.738.738.331.738.738c0 .406-.331.737-.738.737zm7.989 0c-.407 0-.738-.33-.738-.737s.331-.738.738-.738.738.331.738.738c0 .406-.331.737-.738.737zm1.612-5.778l-11.009.647-.454-5.059h12.567l-1.104 4.412z" transform="translate(-1231 -96) translate(1231 96)"/>
            </g>
        </g>
    </g>
</svg>
