<svg xmlns="http://www.w3.org/2000/svg" width="24" height="24" viewBox="0 0 24 24">
    <g>
        <path d="M11.98 5.827c-3.396 0-6.145 2.752-6.145 6.146 0 3.396 2.752 6.146 6.146 6.146 3.396 0 6.146-2.753 6.146-6.146 0-3.397-2.753-6.146-6.146-6.146zm0 10.135c-2.204 0-3.989-1.786-3.989-3.99 0-2.203 1.786-3.989 3.99-3.989 2.203 0 3.989 1.786 3.989 3.99 0 2.203-1.785 3.989-3.99 3.989z"/>
        <path d="M16.915.076c-2.204-.103-7.662-.098-9.868 0C5.11.166 3.4.635 2.021 2.013-.282 4.317.012 7.421.012 11.973c0 4.659-.26 7.69 2.01 9.96 2.312 2.31 5.46 2.008 9.959 2.008 4.615 0 6.207.003 7.84-.629 2.218-.86 3.893-2.844 4.056-6.406.104-2.205.098-7.662 0-9.868C23.68 2.833 21.423.283 16.915.076zm3.488 20.332c-1.51 1.51-3.605 1.375-8.451 1.375-4.99 0-6.992.074-8.452-1.39-1.682-1.674-1.377-4.361-1.377-8.436 0-5.515-.566-9.486 4.968-9.77 1.272-.044 1.646-.06 4.847-.06l.045.03c5.318 0 9.491-.556 9.742 4.977.056 1.263.07 1.642.07 4.838-.002 4.932.092 6.945-1.392 8.436z"/>
        <circle cx="18.37" cy="5.584" r="1.436"/>
    </g>
</svg>
