<svg xmlns="http://www.w3.org/2000/svg" width="30" height="24" viewBox="0 0 30 24">
    <path d="M29.538 2.841c-1.098.482-2.268.801-3.489.957 1.256-.75 2.214-1.928 2.664-3.348-1.17.698-2.463 1.191-3.84 1.466C23.762.733 22.178 0 20.45 0c-3.353 0-6.052 2.721-6.052 6.057 0 .48.04.942.14 1.381C9.504 7.193 5.05 4.78 2.057 1.104c-.523.906-.83 1.944-.83 3.06 0 2.098 1.08 3.957 2.69 5.034-.972-.019-1.927-.301-2.735-.746v.066c0 2.943 2.099 5.387 4.851 5.95-.493.135-1.03.2-1.587.2-.388 0-.78-.022-1.147-.104.785 2.398 3.011 4.162 5.659 4.219-2.06 1.611-4.677 2.583-7.509 2.583-.496 0-.973-.023-1.449-.084C2.682 23.012 5.862 24 9.29 24c11.143 0 17.236-9.23 17.236-17.232 0-.268-.01-.526-.023-.783 1.202-.853 2.212-1.918 3.035-3.144z"/>
</svg>
